<svg id="Layer_1" data-name="Layer 1" xmlns="http://www.w3.org/2000/svg" width="64" height="64" viewBox="0 0 64 64"><defs><style>.cls-1{fill:#fff;}.cls-2{fill:#1d1d1b;}.cls-3{fill:#e6e4da;}</style></defs><title>asteroid-2</title><g id="asteroid-2"><path class="cls-1" d="M39.48,57.22c-.31,0-.63,0-1,0a32.05,32.05,0,0,1-8.1-2.08c-.72-.27-1.35-.5-1.71-.58a10.69,10.69,0,0,0-2.43-.36,4.75,4.75,0,0,0-1.42.21A29.84,29.84,0,0,1,18,55.58l-.52,0c-2.21-.18-6.47-3.05-8.72-8C7,43.69,3.46,32.56,4.32,28.79c.74-3.25,3.39-6,6.14-8.5A4.84,4.84,0,0,0,10.83,19a7.81,7.81,0,0,1,4-6,12.22,12.22,0,0,1,5.83-1.71,6.87,6.87,0,0,1,.91.06,7.63,7.63,0,0,1,1.88-.48,4.64,4.64,0,0,1,.55,0l.63,0,.69,0A8.69,8.69,0,0,0,29,10c1-.44,1.83-.86,2.62-1.28a13.27,13.27,0,0,1,6-1.93h.56c3.47,0,8.23,1.17,10.61,3.41,1.39,1.31,2,3.37,2.73,5.76a24.39,24.39,0,0,0,2.65,6.42l.23.35c2.95,4.49,5.5,8.36,5.42,11.81-.08,3.68-2.44,7.14-5.52,11.29a52.11,52.11,0,0,1-6.75,7.83l-.22.2A11.52,11.52,0,0,1,39.48,57.22Z"/><path class="cls-2" d="M11.61,21.55c1.45-1.32.19-4.94,4.06-7.06s6.12-1.37,6.12-1.37a5.81,5.81,0,0,1,1.87-.56c1.06-.12,2.56.5,6-1s5-2.94,8-3.06,7.81.94,9.94,2.94,2.25,7.5,5.13,11.88,5.44,8.19,5.38,11.19-1.94,5.94-5.19,10.31a52.24,52.24,0,0,1-6.5,7.56c-1,.88-3.56,3.5-7.75,3.13s-8-2.25-9.56-2.62a8.75,8.75,0,0,0-4.75-.12,25.85,25.85,0,0,1-6.75,1.13c-1.56-.12-5.31-2.62-7.31-7S5.3,32.17,6,29.17,9.55,23.42,11.61,21.55Z"/><path class="cls-3" d="M13.23,21.86c.67-1,1.5-4.56,2.75-5.5s4.38-2.19,4.94-1.75a8.5,8.5,0,0,0,4.81,3c3.5.94,6,1.06,8.38-1.19A5.39,5.39,0,0,0,36,11.8a3,3,0,0,1,.56-1.37c.25-.19,8.25.31,10.06,2.63s2.25,8.75,4.94,12.75,4.19,6.06,4.19,8.63-.69,4.81-3.5,8.06-6.81,9.31-8.81,10.25a12.54,12.54,0,0,1-7.31.81c-2.37-.5-5.06-3.37-9.25-2.94S20.55,53,17.17,51.92s-6.44-8.75-7.62-13.31S6.8,30.3,8.36,27.8,12.55,22.86,13.23,21.86Z"/><path class="cls-1" d="M23,14.36c.33-.07,1.25,0,4.06-.44s6.31-2.87,6.56-2.44.06,3.13-1.06,4.06-3.87,1.13-5.62.81S22.48,14.49,23,14.36Z"/><path class="cls-2" d="M16,19.74a5.92,5.92,0,0,1,1.54-3c.58-.33,2.38-.87,2.5-.58s.46.75.13.92-1.79.25-2,.79A10.78,10.78,0,0,1,17,20C16.73,20.2,16.11,19.9,16,19.74Z"/><path class="cls-2" d="M10.94,26.82c.26-.22,1.54.21,1.38.5s-1.46,1.25-1.46,2.54.42,2.29.08,2.42-1.21.46-1.29-.08a8.58,8.58,0,0,1-.08-2.54A12,12,0,0,1,10.94,26.82Z"/><path class="cls-2" d="M40.82,13.9a2.41,2.41,0,0,1,3.5,2.58c-.37,2.29-3.37,2.25-4.33,1.38A2.5,2.5,0,0,1,40.82,13.9Z"/><path class="cls-1" d="M41.33,15a1.21,1.21,0,0,1,1.76,1.3c-.19,1.15-1.7,1.13-2.18.69A1.26,1.26,0,0,1,41.33,15Z"/><path class="cls-2" d="M29.19,20.95C30,20.74,32,21,31.82,23s-2.46,1.54-3.37,1.08S27.52,21.36,29.19,20.95Z"/><path class="cls-1" d="M29.55,21.95c.36-.09,1.22,0,1.13.9s-1.06.66-1.45.47A.8.8,0,0,1,29.55,21.95Z"/><path class="cls-2" d="M19.61,25.2c1.42-.68,5-.29,7.54.83S29,28.61,28,32.11,26.11,38,25.4,38.9a6.25,6.25,0,0,1-2.67,1.83c-.54.08-2.58.17-3-.29a4.22,4.22,0,0,0-2.33-1.83c-1.29-.25-2.63,0-3.42-1.75a7.2,7.2,0,0,1,.5-6.33A13.78,13.78,0,0,1,19.61,25.2Z"/><path class="cls-1" d="M20.32,26.07c.81-.3,4.25.5,5.46.88s2,1.08,1.88,2.13a58.66,58.66,0,0,1-2.12,6.08c-.87,2.38-.87,2.92-2.17,3.71s-2.25,1.08-2.58.75a6.31,6.31,0,0,0-2.87-2c-1.5-.37-2.63-.67-2.79-1.12a7.75,7.75,0,0,1,.38-5.38C16.65,29,19.07,26.53,20.32,26.07Z"/><path class="cls-2" d="M39.11,21.65a5.74,5.74,0,0,1,7.46,2.71,5.14,5.14,0,0,1-2.12,7.08c-2.12.92-6.25,1.46-8-1.17S35.32,23.78,39.11,21.65Z"/><path class="cls-1" d="M41.77,22.24a4.8,4.8,0,0,1,3.63,2.58c1.08,2.17.67,3.5-.08,4.54a5.67,5.67,0,0,1-5.54,1.79,3.62,3.62,0,0,1-2.87-3c-.08-.62-.17-1.71,0-1.71s1.33,2.38,1.67,2.29.67-.83.54-1a16.85,16.85,0,0,1-1.58-2.71c.13-.12.54-1.12.75-.87s1.33,3.25,1.58,3.08.67-.92.5-1.21-1.54-2.5-1.33-2.71,1.17-.92,1.33-.75.71,2.17,1,2.21A.61.61,0,0,0,42,24.2C41.94,23.9,41.48,22.32,41.77,22.24Z"/><path class="cls-2" d="M16.07,33.4c-.13-.3.5-.87.83-.58s1.88,3.13,1.58,3.33-.54.33-.75.25A22.57,22.57,0,0,1,16.07,33.4Z"/><path class="cls-2" d="M17.61,30.86c.06-.29.54-.67.83-.5a22.49,22.49,0,0,1,2,4.42.71.71,0,0,1-.5.79A29,29,0,0,1,17.61,30.86Z"/><path class="cls-2" d="M19.44,28.78c-.06-.2.54-.75.79-.58a12.53,12.53,0,0,1,1.5,3.87c-.08.58-.37.92-.58.75A39.21,39.21,0,0,1,19.44,28.78Z"/><path class="cls-2" d="M21.69,27.61c0-.24.83-.37,1-.25a3.84,3.84,0,0,1,.46,1.92c-.17.38-.42.75-.67.46A6.47,6.47,0,0,1,21.69,27.61Z"/><path class="cls-2" d="M31.9,33.82a1.83,1.83,0,0,1,2.54,1.92c0,1.92-2.54,2-3.42,1.25S30.32,34.57,31.9,33.82Z"/><path class="cls-1" d="M32.24,34.84a.75.75,0,0,1,1,.78c0,.78-1,.82-1.39.51A.79.79,0,0,1,32.24,34.84Z"/><path class="cls-2" d="M49.38,30.93a2.29,2.29,0,0,1,3.18,2.4c0,2.4-3.18,2.5-4.27,1.56S47.4,31.87,49.38,30.93Z"/><path class="cls-1" d="M49.7,31.89a1.28,1.28,0,0,1,1.77,1.34c0,1.34-1.77,1.39-2.38.87A1.36,1.36,0,0,1,49.7,31.89Z"/><path class="cls-2" d="M24.23,44c1.18-.54,3.79.25,3.25,2.5s-3.17,1.63-4,.92A2,2,0,0,1,24.23,44Z"/><path class="cls-1" d="M24.61,44.74c.72-.33,2.33.15,2,1.54s-1.95,1-2.46.56A1.26,1.26,0,0,1,24.61,44.74Z"/><path class="cls-2" d="M35.69,42.86c.87-.32,1.67.79,3.54.25s4-1.42,5.75-1.17a2.38,2.38,0,0,1,2.29,1.92,5.46,5.46,0,0,1-.42,2.63A34.33,34.33,0,0,1,44,49.11c-.92.88-1.46,1.71-2.46,1.54s-1.71-.83-3.25-.87a7.24,7.24,0,0,1-3.08-.46c-.79-.37-2.42-1.75-2.33-2.75A6.36,6.36,0,0,1,35.69,42.86Z"/><path class="cls-1" d="M35.23,44.53s.08,2.42.33,2.5.67.13.67-.08-.33-3,0-3,.71,0,.75.17-.08,3.13.25,3.17.67.17.67,0,0-3,0-3,.5,0,.58.13,0,3,.33,3.08.67,0,.67-.21A21.28,21.28,0,0,1,39.4,44c.17,0,1-.46,1-.29s0,2.42.21,2.42.83,0,.83-.29-.21-2.21,0-2.33,1.17-.5,1.21-.33-.08,1.63.08,1.63.67,0,.67-.29,0-1.54.17-1.58,2.25,0,2.5.54a4,4,0,0,1,.13,2.17c-.17.25-1.79,1.42-2.54,2.33s-1.33,1.58-1.92,1.63-1.71-.71-2.67-.87-2.54,0-3.42-.42a2.22,2.22,0,0,1-1.37-1.58A4.66,4.66,0,0,1,35.23,44.53Z"/><path class="cls-2" d="M36.32,37.24c-.26-.18.79-.46,1-.29s1.54,3.38,1.25,3.58a2.3,2.3,0,0,1-1,.21S36.44,37.32,36.32,37.24Z"/><path class="cls-2" d="M37.82,35.32c.15-.15.75-.62,1-.42a9.84,9.84,0,0,1,.88,3.71c-.21.25-.92.42-1,.17A25.19,25.19,0,0,1,37.82,35.32Z"/><path class="cls-2" d="M40.32,34.49c.13-.17.71-.37.79-.08a14.83,14.83,0,0,1,.38,3.17c-.17.13-.79.42-.92.08A14.26,14.26,0,0,1,40.32,34.49Z"/><path class="cls-2" d="M45.77,39.53c.13.13,3.15,2.14,3.15,2.67s-.06,1-.73.54a30.15,30.15,0,0,1-3-2.29C45.19,40.24,45.69,39.45,45.77,39.53Z"/><path class="cls-2" d="M46,37.7c-.05-.23.46-.62.71-.54s3.79,3.67,3.58,3.83-.42.5-.62.5A26.5,26.5,0,0,1,46,37.7Z"/><path class="cls-2" d="M48.07,36.65s.42-.71.75-.5,2.75,2.83,2.67,3.13-.54.79-.75.67S48.19,36.78,48.07,36.65Z"/></g></svg>