<?xml version="1.0" encoding="utf-8"?>
<!-- Generator: Adobe Illustrator 21.0.2, SVG Export Plug-In . SVG Version: 6.00 Build 0)  -->
<svg version="1.1" id="helmet" xmlns="http://www.w3.org/2000/svg" xmlns:xlink="http://www.w3.org/1999/xlink" x="0px" y="0px"
	 viewBox="0 0 128 128" style="enable-background:new 0 0 128 128;" xml:space="preserve">
<style type="text/css">
	.st0{fill:#28A5C6;}
	.st1{fill:#EAEAEA;}
	.st2{fill:#D4D6D6;}
	.st3{fill:#233E49;}
	.st4{fill:#3AD0F9;}
	.st5{fill:#00B3F9;}
	.st6{fill:#FF4848;}
	.st7{fill:#FFFFFF;}
	.st8{opacity:0.5;fill:#FFFFFF;}
</style>
<g>
	<circle class="st0" cx="64" cy="64" r="64"/>
	<path class="st1" d="M104,61.8c0,21.8-17.6,39.6-39.4,39.6C42.7,101.4,25,83.6,25,61.8c0-21.9,17.7-39.6,39.6-39.6
		C86.4,22.2,104,39.9,104,61.8z"/>
	<path class="st2" d="M68.6,90C46.7,90,29,72.3,29,50.5c0-2.5,0.2-5,0.7-7.4C26.7,48.7,25,55,25,61.8c0,21.8,17.7,39.6,39.6,39.6
		c19.3,0,35.4-13.9,38.9-32.2C96.8,81.6,83.7,90,68.6,90z"/>
	<path class="st3" d="M64.6,102.4C42.2,102.4,24,84.2,24,61.8C24,39.3,42.6,21,65,21c22.3,0,40,18.3,40,40.8
		C105,84.2,86.9,102.4,64.6,102.4z M65,23c-21.3,0-39,17.4-39,38.8c0,21.3,17.3,38.6,38.6,38.6c21.2,0,38.4-17.3,38.4-38.6
		C103,40.4,86.2,23,65,23z"/>
	<path class="st1" d="M93.8,99c0,3.7-3.6,6.7-8,6.7H43.7c-4.4,0-8-3-8-6.7c0-3.7,3.6-6.7,8-6.7h42.1C90.2,92.4,93.8,95.4,93.8,99z"
		/>
	<path class="st4" d="M89.5,31.1L52.1,63c0,0,0,3.7,0,7.4c0,3.7,0.5,8.4,7.4,8.4c4.6,0,27,0,40.8,0c2.5-5.1,3.7-10.9,3.7-17
		C104,49.4,98.4,38.4,89.5,31.1z"/>
	<path class="st5" d="M64.7,52.3L52.1,63c0,0,0,3.7,0,7.4c0,3.7,0.5,8.4,7.4,8.4c3.5,0,17.2,0,29.7,0C77.8,73.6,68.9,64.1,64.7,52.3
		z"/>
	<circle class="st6" cx="42.5" cy="69.5" r="4.5"/>
	<path class="st7" d="M68,63.4c-0.3,0-0.5-0.1-0.7-0.3c-0.4-0.4-0.4-1,0-1.4l14.4-14.4c0.4-0.4,1-0.4,1.4,0c0.4,0.4,0.4,1,0,1.4
		L68.7,63.1C68.5,63.3,68.2,63.4,68,63.4z"/>
	<path class="st7" d="M71.2,72.1c-0.3,0-0.5-0.1-0.7-0.3c-0.4-0.4-0.4-1,0-1.4L85,55.9c0.4-0.4,1-0.4,1.4,0c0.4,0.4,0.4,1,0,1.4
		L71.9,71.8C71.7,72,71.5,72.1,71.2,72.1z"/>
	<path class="st7" d="M81.8,73.2c-0.3,0-0.5-0.1-0.7-0.3c-0.4-0.4-0.4-1,0-1.4l9.3-9.3c0.4-0.4,1-0.4,1.4,0c0.4,0.4,0.4,1,0,1.4
		l-9.3,9.3C82.3,73.1,82.1,73.2,81.8,73.2z"/>
	<path class="st3" d="M101.3,107H27.5c-0.6,0-1-0.4-1-1s0.4-1,1-1h73.8c0.6,0,1,0.4,1,1S101.9,107,101.3,107z"/>
	<path class="st2" d="M85.8,101H43.7c-3.3,0-6.2-1.7-7.4-4.2c-0.4,0.8-0.6,1.6-0.6,2.5c0,3.7,3.6,6.7,8,6.7h42.1c4.4,0,8-3,8-6.7
		c0-0.9-0.2-1.7-0.6-2.5C92,99.3,89.2,101,85.8,101z"/>
	<path class="st3" d="M86,107H44c-5,0-9.1-3.6-9.1-8c0-2,0.7-3.8,2.2-5.3c1.7-1.7,4.1-2.7,6.7-2.7H86c5,0,9,3.6,9,8S91,107,86,107z
		 M43.7,93c-2,0-3.9,0.8-5.3,2.1c-1.1,1.1-1.6,2.5-1.6,3.9c0.1,3.3,3.3,6,7.1,6h42c3.9,0,7-2.7,7-6s-3.1-6-7-6H43.7z"/>
	<path class="st3" d="M42.6,75c-3,0-5.5-2.4-5.6-5.4c0-3,2.4-5.5,5.4-5.6c3,0,5.5,2.4,5.6,5.4C48,72.5,45.6,75,42.6,75z M42.5,66
		c-1.9,0-3.5,1.6-3.5,3.5c0,1.9,1.6,3.5,3.5,3.5s3.5-1.6,3.5-3.5C46,67.6,44.4,66,42.5,66z"/>
	<path class="st3" d="M100.3,80H59.5c-8.4,0-8.5-7.4-8.5-10v-7c0-0.3,0.3-0.6,0.5-0.7l37.4-31.9c0.4-0.3,0.9-0.3,1.3,0
		C99.7,38.1,105,49.7,105,62c0,6.2-1.2,12-3.8,17.4C101,79.8,100.7,80,100.3,80z M53,64v7c0,4.6,1.2,7,6.5,7h40.2
		c2.3-5,3.3-10.4,3.3-16c0-11.4-4.8-22.2-13.5-29.6L53,64z"/>
	<path class="st7" d="M99.3,66.5C99.3,66.5,99.3,66.5,99.3,66.5c-0.6,0-1-0.5-1-1.1c0.3-5.4-0.5-10.7-2.5-15.9
		c-0.2-0.5,0.1-1.1,0.6-1.3c0.5-0.2,1.1,0.1,1.3,0.6c2.1,5.4,3,11,2.6,16.7C100.3,66.1,99.9,66.5,99.3,66.5z"/>
	<path class="st7" d="M94.5,45.3c-0.4,0-0.7-0.2-0.9-0.5c-2.3-4.2-4.5-6.5-4.5-6.5c-0.4-0.4-0.4-1,0-1.4c0.4-0.4,1-0.4,1.4,0
		c0.1,0.1,2.4,2.6,4.8,7c0.3,0.5,0.1,1.1-0.4,1.4C94.8,45.2,94.7,45.3,94.5,45.3z"/>
	<path class="st7" d="M34.2,48c-0.1,0-0.2,0-0.4-0.1c-0.5-0.2-0.8-0.8-0.6-1.3c0.2-0.6,5.4-13.8,21.7-18.5c0.5-0.2,1.1,0.2,1.2,0.7
		c0.2,0.5-0.2,1.1-0.7,1.2c-15.3,4.4-20.3,17.2-20.3,17.3C35,47.8,34.7,48,34.2,48z"/>
	<path class="st7" d="M83.8,97h-6.5c-0.6,0-1-0.4-1-1s0.4-1,1-1h6.5c0.6,0,1,0.4,1,1S84.3,97,83.8,97z"/>
	<path class="st7" d="M68.8,97h-22c-0.6,0-1-0.4-1-1s0.4-1,1-1h22c0.6,0,1,0.4,1,1S69.3,97,68.8,97z"/>
	<path class="st8" d="M44,70.6c-0.6,0-1-0.4-1-1c0-0.3-0.3-0.6-0.6-0.6s-0.6,0.3-0.6,0.6c0,0.6-0.4,1-1,1c-0.6,0-1-0.4-1-1
		c0-1.4,1.2-2.6,2.6-2.6s2.6,1.2,2.6,2.6C45,70.1,44.6,70.6,44,70.6z"/>
	<path class="st8" d="M40,21c-2.2,0-4-1.8-4-4c0-2.2,1.8-4,4-4c2.2,0,4,1.8,4,4C44,19.2,42.2,21,40,21z M40,14.9
		c-1.2,0-2.1,1-2.1,2.1c0,1.2,1,2.1,2.1,2.1c1.2,0,2.1-1,2.1-2.1C42.1,15.8,41.2,14.9,40,14.9z"/>
	<path class="st8" d="M113,86c-2.2,0-4-1.8-4-4c0-2.2,1.8-4,4-4c2.2,0,4,1.8,4,4C117,84.2,115.2,86,113,86z M113,79.9
		c-1.2,0-2.1,1-2.1,2.1c0,1.2,1,2.1,2.1,2.1c1.2,0,2.1-1,2.1-2.1C115.1,80.8,114.2,79.9,113,79.9z"/>
	<path class="st8" d="M20.1,72.6c0-0.4-0.4-0.8-1-0.9l-1.9-0.3c-0.5-0.1-1.1-0.6-1.1-1.1l-0.3-1.9c-0.1-0.5-0.5-1-0.9-1
		s-0.8,0.4-0.9,1l-0.3,1.9c-0.1,0.5-0.6,1.1-1.1,1.1l-1.9,0.3c-0.5,0.1-1,0.5-1,0.9c0,0.4,0.4,0.8,1,0.9l1.9,0.3
		c0.5,0.1,1.1,0.6,1.1,1.1l0.3,1.9c0.1,0.5,0.5,1,0.9,1s0.8-0.4,0.8-1l0.3-2.1c0.1-0.5,0.6-1,1.1-1.1l1.8-0.1
		C19.6,73.3,20.1,73,20.1,72.6z"/>
	<path class="st8" d="M93.4,17.2c0-0.4-0.4-0.8-1-0.9l-1.9-0.3C90,16,89.5,15.5,89.4,15l-0.3-1.9c-0.1-0.5-0.5-1-0.9-1
		s-0.8,0.4-0.9,1L87.1,15c-0.1,0.5-0.6,1.1-1.1,1.1l-1.9,0.3c-0.5,0.1-1,0.5-1,0.9c0,0.4,0.4,0.8,1,0.9l1.9,0.3
		c0.5,0.1,1.1,0.6,1.1,1.1l0.3,1.9c0.1,0.5,0.5,1,0.9,1s0.8-0.4,0.8-1l0.3-2.1c0.1-0.5,0.6-1,1.1-1.1l1.8-0.1
		C93,18,93.4,17.6,93.4,17.2z"/>
</g>
</svg>
