<?xml version="1.0" encoding="UTF-8" standalone="no"?>
<!-- Created with Inkscape (http://www.inkscape.org/) -->

<svg
   width="64pt"
   height="64pt"
   viewBox="0 0 22.577778 22.577778"
   version="1.1"
   id="svg831"
   inkscape:version="1.1.1 (3bf5ae0d25, 2021-09-20)"
   sodipodi:docname="Export - Unblash - 64px.svg"
   inkscape:export-filename="C:\Users\User\Desktop\CARLOS PROJECT\3. MARET 1\EXPORT\FILEDLINE\4 - Clipboard.png"
   inkscape:export-xdpi="576"
   inkscape:export-ydpi="576"
   xmlns:inkscape="http://www.inkscape.org/namespaces/inkscape"
   xmlns:sodipodi="http://sodipodi.sourceforge.net/DTD/sodipodi-0.dtd"
   xmlns="http://www.w3.org/2000/svg"
   xmlns:svg="http://www.w3.org/2000/svg"
   xmlns:rdf="http://www.w3.org/1999/02/22-rdf-syntax-ns#"
   xmlns:cc="http://creativecommons.org/ns#"
   xmlns:dc="http://purl.org/dc/elements/1.1/">
  <defs
     id="defs825">
    <pattern
       id="EMFhbasepattern"
       patternUnits="userSpaceOnUse"
       width="6"
       height="6"
       x="0"
       y="0" />
    <pattern
       id="EMFhbasepattern-9"
       patternUnits="userSpaceOnUse"
       width="6"
       height="6"
       x="0"
       y="0" />
    <pattern
       id="EMFhbasepattern-0"
       patternUnits="userSpaceOnUse"
       width="6"
       height="6"
       x="0"
       y="0" />
    <pattern
       id="EMFhbasepattern-7"
       patternUnits="userSpaceOnUse"
       width="6"
       height="6"
       x="0"
       y="0" />
    <pattern
       id="EMFhbasepattern-2"
       patternUnits="userSpaceOnUse"
       width="6"
       height="6"
       x="0"
       y="0" />
    <pattern
       id="EMFhbasepattern-98"
       patternUnits="userSpaceOnUse"
       width="6"
       height="6"
       x="0"
       y="0" />
    <pattern
       id="EMFhbasepattern-6"
       patternUnits="userSpaceOnUse"
       width="6"
       height="6"
       x="0"
       y="0" />
    <pattern
       id="EMFhbasepattern-01"
       patternUnits="userSpaceOnUse"
       width="6"
       height="6"
       x="0"
       y="0" />
    <pattern
       id="EMFhbasepattern-07"
       patternUnits="userSpaceOnUse"
       width="6"
       height="6"
       x="0"
       y="0" />
    <pattern
       id="EMFhbasepattern-8"
       patternUnits="userSpaceOnUse"
       width="6"
       height="6"
       x="0"
       y="0" />
    <pattern
       id="EMFhbasepattern-4"
       patternUnits="userSpaceOnUse"
       width="6"
       height="6"
       x="0"
       y="0" />
    <pattern
       id="EMFhbasepattern-40"
       patternUnits="userSpaceOnUse"
       width="6"
       height="6"
       x="0"
       y="0" />
    <pattern
       id="EMFhbasepattern-08"
       patternUnits="userSpaceOnUse"
       width="6"
       height="6"
       x="0"
       y="0" />
    <pattern
       id="EMFhbasepattern-04"
       patternUnits="userSpaceOnUse"
       width="6"
       height="6"
       x="0"
       y="0" />
    <pattern
       id="EMFhbasepattern-014"
       patternUnits="userSpaceOnUse"
       width="6"
       height="6"
       x="0"
       y="0" />
    <pattern
       id="EMFhbasepattern-27"
       patternUnits="userSpaceOnUse"
       width="6"
       height="6"
       x="0"
       y="0" />
    <pattern
       id="EMFhbasepattern-09"
       patternUnits="userSpaceOnUse"
       width="6"
       height="6"
       x="0"
       y="0" />
    <pattern
       id="EMFhbasepattern-5"
       patternUnits="userSpaceOnUse"
       width="6"
       height="6"
       x="0"
       y="0" />
    <pattern
       id="EMFhbasepattern-018"
       patternUnits="userSpaceOnUse"
       width="6"
       height="6"
       x="0"
       y="0" />
  </defs>
  <sodipodi:namedview
     id="base"
     pagecolor="#ffffff"
     bordercolor="#666666"
     borderopacity="1.0"
     inkscape:pageopacity="0.0"
     inkscape:pageshadow="2"
     inkscape:zoom="6.4882571"
     inkscape:cx="32.982663"
     inkscape:cy="55.253667"
     inkscape:document-units="pt"
     inkscape:current-layer="layer1"
     showgrid="false"
     units="pt"
     inkscape:window-width="1920"
     inkscape:window-height="1001"
     inkscape:window-x="-9"
     inkscape:window-y="41"
     inkscape:window-maximized="1"
     inkscape:pagecheckerboard="true"
     inkscape:showpageshadow="false"
     inkscape:object-paths="true"
     inkscape:snap-intersection-paths="true"
     inkscape:snap-smooth-nodes="true"
     inkscape:snap-midpoints="true"
     showguides="true"
     inkscape:snap-bbox="true"
     inkscape:bbox-nodes="true"
     inkscape:snap-nodes="false"
     inkscape:snap-global="true">
    <inkscape:grid
       type="xygrid"
       id="grid1378" />
    <sodipodi:guide
       position="0.97013831,21.607643"
       orientation="78.000048,0"
       id="guide1380"
       inkscape:locked="false" />
    <sodipodi:guide
       position="0.97013831,0.97013129"
       orientation="0,78.000005"
       id="guide1382"
       inkscape:locked="false" />
    <sodipodi:guide
       position="21.607639,0.97013129"
       orientation="-78.000048,0"
       id="guide1384"
       inkscape:locked="false" />
    <sodipodi:guide
       position="21.607639,21.607643"
       orientation="0,-78.000005"
       id="guide1386"
       inkscape:locked="false" />
  </sodipodi:namedview>
  <metadata
     id="metadata828">
    <rdf:RDF>
      <cc:Work
         rdf:about="">
        <dc:format>image/svg+xml</dc:format>
        <dc:type
           rdf:resource="http://purl.org/dc/dcmitype/StillImage" />
      </cc:Work>
    </rdf:RDF>
  </metadata>
  <g
     inkscape:label="Icon"
     inkscape:groupmode="layer"
     id="layer1"
     transform="translate(0,-274.42223)">
    <g
       id="g6845"
       style="display:inline;stroke-width:0.782007"
       transform="matrix(1.2787616,0,0,1.2787616,-38.544137,-44.248089)">
      <g
         id="g3288"
         style="stroke-width:0.782007">
        <path
           style="color:#000000;fill:#3a4d5c;fill-opacity:1;stroke-width:0.782007;stroke-linecap:round;stroke-linejoin:round;-inkscape-stroke:none"
           d="m 34.802734,251.8125 c -0.581365,0 -1.058593,0.47722 -1.058593,1.05859 v 12.16993 c 0,0.58136 0.477228,1.05859 1.058593,1.05859 h 10.31836 c 0.581365,0 1.058593,-0.47723 1.058593,-1.05859 v -12.16993 c 0,-0.58137 -0.477228,-1.05859 -1.058593,-1.05859 h -5.160157 z"
           id="path509011" />
        <path
           id="path676390"
           style="fill:#143441;fill-opacity:1;stroke-width:2.95562;stroke-linecap:round;stroke-linejoin:round"
           d="m 133.03711,-81.835938 c -1.93372,0 -3.78834,0.358531 -5.5,1.011719 v 24.035157 c 0,2.197266 1.80271,4 4,4 h 9.19336 c 4.68071,-2.687229 7.85154,-7.73872 7.85156,-13.494141 3e-5,-8.549632 -6.99359,-15.552734 -15.54492,-15.552735 z"
           transform="matrix(0.26458334,0,0,0.26458334,0,280.06666)" />
        <path
           id="path509203"
           style="color:#000000;fill:#ececec;stroke-width:2.95562;stroke-linecap:round;stroke-linejoin:round;-inkscape-stroke:none"
           d="m 140.03516,-56.789062 h 26.5 c 2.1973,0 4.00195,-1.796837 4.00195,-3.994141 V -106.78711 H 151.0332 131.53711 v 34.998048 z"
           transform="matrix(0.26458334,0,0,0.26458334,0,280.06666)"
           sodipodi:nodetypes="cssccccc" />
        <path
           id="path684440"
           style="fill:#cccccc;fill-opacity:1;stroke-width:2.95562;stroke-linecap:round;stroke-linejoin:round"
           d="m 136.25,-106.78711 c -0.20027,1.3005 -0.10547,2.63651 -0.10547,4 0,2.68615 2.21405,4.886719 4.89453,4.886719 h 19.9961 c 2.68048,0 4.88672,-2.206199 4.88672,-4.886719 0.0109,-1.31699 0.0477,-2.75903 -0.10547,-4 H 151.0332 Z"
           transform="matrix(0.26458334,0,0,0.26458334,0,280.06666)"
           sodipodi:nodetypes="ccsscccc" />
        <path
           style="color:#000000;fill:#3a4d5c;stroke-width:0.782007;stroke-linecap:round;stroke-linejoin:round;-inkscape-stroke:none"
           d="m 39.486328,249.96094 c -0.344686,0.008 -0.621013,0.12518 -0.802734,0.31445 -0.274087,0.3707 -0.296355,1.00784 -0.898397,1.00784 h -0.46875 c -0.435236,0 -0.794923,0.35968 -0.794922,0.79492 v 0.79297 c 0,0.43524 0.359686,0.79297 0.794922,0.79297 h 5.291016 c 0.435236,0 0.792969,-0.35773 0.792969,-0.79297 v -0.79297 c 10e-7,-0.43524 -0.357733,-0.79492 -0.792969,-0.79492 h -0.46875 c -0.610832,0 -0.596375,-0.66901 -0.908203,-1.01367 -0.176866,-0.19037 -0.455299,-0.30859 -0.800782,-0.30859 z"
           id="path508627"
           sodipodi:nodetypes="cccsssssssscccc" />
        <path
           id="path676514"
           style="fill:#cccccc;fill-opacity:1;stroke-width:2.95562;stroke-linecap:round;stroke-linejoin:round"
           d="m 131.53711,-81.761719 v 9.972657 c 1.2e-4,0.164967 0.041,0.327341 0.11914,0.472656 l 7.5,14.001953 c 0.1743,0.323205 0.5117,0.524896 0.87891,0.525391 h 5.28515 c 2.04121,-2.631239 3.26171,-5.926432 3.26172,-9.494141 0,-8.795286 -6.07743,-16.045175 -17.04492,-15.478516 z"
           transform="matrix(0.26458334,0,0,0.26458334,0,280.06666)"
           sodipodi:nodetypes="cccccccc" />
        <path
           style="color:#000000;fill:#349951;stroke-width:0.782007;stroke-linecap:round;stroke-linejoin:round;-inkscape-stroke:none"
           d="m 35.199219,259.25278 c -1.896498,0 -3.233347,1.38002 -3.23334,3.27652 5e-6,1.89649 1.336849,3.25395 3.23334,3.25395 1.89649,0 3.274556,-1.35746 3.274562,-3.25395 6e-6,-1.8965 -1.378065,-3.27652 -3.274562,-3.27652 z"
           id="path508406"
           sodipodi:nodetypes="sssss" />
        <path
           style="color:#000000;fill:#f9f9f9;stroke-width:0.782007;stroke-linecap:round;stroke-linejoin:round;-inkscape-stroke:none"
           d="m 35.275356,263 -1.375,-1.37305 c -0.235452,-0.23545 -0.625877,-0.23545 -0.861329,0 l -0.261718,0.25977 c -0.235391,0.23539 -0.234826,0.62537 0,0.86133 l 1.761718,1.76953 c 0.402346,0.40417 1.063239,0.40877 1.470704,0.01 l 3.55664,-3.48047 c 0.238245,-0.23319 0.239626,-0.62558 0.0039,-0.86132 l -0.261718,-0.26172 c -0.235168,-0.23506 -0.623302,-0.238 -0.861328,-0.006 z"
           id="path508214"
           sodipodi:nodetypes="cccccccccccc" />
      </g>
      <path
         id="rect17296"
         style="color:#000000;display:inline;fill:#000000;stroke-width:0.782007;stroke-linecap:round;stroke-linejoin:round;-inkscape-stroke:none"
         d="m 39.486479,249.961 c -0.344686,0.008 -0.621329,0.12493 -0.803051,0.3142 -0.178657,0.18607 -0.264845,0.41276 -0.337965,0.63148 -0.09338,0.22847 -0.313023,0.37672 -0.560171,0.37672 h -0.468706 c -0.342231,0 -0.636987,0.22257 -0.747758,0.52917 h -1.7663 c -0.581366,0 -1.058333,0.47696 -1.058333,1.05833 v 5.82032 c -5.3e-4,0.14613 0.117424,0.26505 0.263548,0.26562 0.146934,5.8e-4 0.266192,-0.11869 0.265618,-0.26562 v -5.82032 c 0,-0.29539 0.233781,-0.52916 0.529167,-0.52916 v 6.08593 c 5.29e-4,0.14552 0.118546,0.26327 0.264067,0.26355 0.146124,5.8e-4 0.265047,-0.11742 0.265616,-0.26355 v -6.08593 h 1.189074 v 0.52916 c 0,0.43524 0.360066,0.79324 0.795301,0.79324 h 5.290634 c 0.435235,0 0.793232,-0.358 0.793232,-0.79324 v -0.52916 h 1.191144 v 11.6427 c 0,0.29538 -0.233784,0.52916 -0.529167,0.52916 H 38.63847 c -0.145319,5.6e-4 -0.262985,0.11823 -0.263551,0.26355 2.65e-4,0.14553 0.118031,0.2635 0.263551,0.26407 h 5.423959 c 0.581369,0 1.058849,-0.47541 1.058849,-1.05678 v -11.6427 c 0.295386,0 0.529167,0.23377 0.529167,0.52916 v 12.17032 c 0,0.29539 -0.233781,0.52917 -0.529167,0.52917 h -7.541141 c -0.146127,5.8e-4 -0.264123,0.11949 -0.263551,0.26561 5.29e-4,0.14532 0.118231,0.26299 0.263551,0.26355 h 7.541141 c 0.581364,0 1.058334,-0.47697 1.058334,-1.05833 V 252.8709 c 0,-0.58137 -0.47697,-1.05833 -1.058334,-1.05833 h -1.76785 c -0.110223,-0.3066 -0.403977,-0.52917 -0.746208,-0.52917 h -0.468706 c -0.248698,0 -0.469876,-0.14994 -0.56224,-0.38085 -0.08732,-0.21831 -0.168849,-0.44267 -0.345715,-0.63304 -0.176866,-0.19037 -0.455501,-0.30851 -0.800984,-0.30851 z m 0.943099,0.52917 c 0.244097,0 0.330409,0.0503 0.412377,0.13849 0.288128,0.5524 0.569936,1.16719 1.296561,1.18391 h 0.468707 c 0.149257,0 0.265615,0.11637 0.265615,0.26562 v 0.79271 c 0,0.14926 -0.116358,0.26407 -0.265615,0.26407 h -5.290635 c -0.149254,0 -0.265615,-0.11481 -0.265615,-0.26407 v -0.79271 c 0,-0.14925 0.116358,-0.26562 0.265615,-0.26562 h 0.468707 c 0.781219,0 0.936667,-0.58704 1.28106,-1.16995 0.08548,-0.089 0.188671,-0.14682 0.433567,-0.15245 z m -0.467672,0.79323 c -0.292251,0 -0.529167,0.23692 -0.529167,0.52917 0,0.29225 0.236916,0.52917 0.529167,0.52917 0.29225,0 0.529166,-0.23692 0.529166,-0.52917 0,-0.29225 -0.236916,-0.52917 -0.529166,-0.52917 z m -2.910933,3.17552 c -0.145521,2.9e-4 -0.263499,0.11803 -0.264067,0.26355 -5.3e-4,0.14633 0.117739,0.26533 0.264067,0.26562 h 4.234365 c 0.146127,-5.9e-4 0.264123,-0.11949 0.263552,-0.26562 -5.29e-4,-0.14532 -0.118232,-0.26298 -0.263552,-0.26355 z m 5.292699,0 c -0.146124,-5.8e-4 -0.265047,0.11742 -0.265616,0.26355 -5.29e-4,0.14693 0.118682,0.26619 0.265616,0.26562 h 1.3224 c 0.146125,-5.9e-4 0.264121,-0.11949 0.263549,-0.26562 -5.29e-4,-0.14532 -0.118229,-0.26298 -0.263549,-0.26355 z m -6.086968,0.52968 c -0.145319,5.6e-4 -0.262982,0.11823 -0.263548,0.26355 2.64e-4,0.14552 0.118028,0.2635 0.263548,0.26407 0.146328,5.8e-4 0.265333,-0.11774 0.265618,-0.26407 -5.29e-4,-0.14612 -0.119491,-0.26412 -0.265618,-0.26355 z m 0.794269,0.52917 c -0.145521,2.9e-4 -0.263499,0.11803 -0.264067,0.26355 -5.3e-4,0.14633 0.117739,0.26533 0.264067,0.26562 h 1.323949 c 0.146126,-5.9e-4 0.264123,-0.11949 0.263551,-0.26562 -5.29e-4,-0.14532 -0.118232,-0.26298 -0.263551,-0.26355 z m 2.380731,0 c -0.145319,5.6e-4 -0.262982,0.11823 -0.263548,0.26355 -5.3e-4,0.14613 0.117424,0.26505 0.263548,0.26562 h 4.234368 c 0.146125,-5.9e-4 0.264121,-0.11949 0.263549,-0.26562 -5.29e-4,-0.14532 -0.118229,-0.26298 -0.263549,-0.26355 z m -2.380731,1.32188 c -0.145722,2.9e-4 -0.263784,0.11835 -0.264067,0.26407 -5.3e-4,0.14633 0.117739,0.26533 0.264067,0.26562 h 6.615099 c 0.146125,-5.9e-4 0.264121,-0.11949 0.263549,-0.26562 -2.64e-4,-0.14552 -0.118028,-0.2635 -0.263549,-0.26407 z m -0.794269,0.5302 c -0.145319,5.6e-4 -0.262982,0.11823 -0.263548,0.26355 2.64e-4,0.14552 0.118028,0.2635 0.263548,0.26407 0.146328,5.8e-4 0.265333,-0.11774 0.265618,-0.26407 -5.29e-4,-0.14612 -0.119491,-0.26412 -0.265618,-0.26355 z m 0.794269,0.52865 c -0.145521,2.9e-4 -0.263499,0.11803 -0.264067,0.26355 -5.3e-4,0.14633 0.117739,0.26534 0.264067,0.26562 h 4.234365 c 0.146127,-5.8e-4 0.264123,-0.11949 0.263552,-0.26562 -5.29e-4,-0.14532 -0.118232,-0.26298 -0.263552,-0.26355 z m 5.292699,0 c -0.146124,-5.8e-4 -0.265047,0.11743 -0.265616,0.26355 -5.29e-4,0.14694 0.118682,0.26619 0.265616,0.26562 h 1.3224 c 0.146125,-5.8e-4 0.264121,-0.11949 0.263549,-0.26562 -5.29e-4,-0.14532 -0.118229,-0.26298 -0.263549,-0.26355 z m -7.144266,1.1896 c -1.896499,0 -3.439592,1.54463 -3.439584,3.44113 5e-6,1.89649 1.543093,3.43958 3.439584,3.43958 2.077788,0 3.590536,-1.88858 3.389974,-3.96565 l 0.977201,-0.95601 c 0.238244,-0.23319 0.239342,-0.62571 0.0036,-0.86145 l -0.261483,-0.26148 c -0.235166,-0.23506 -0.623419,-0.2382 -0.861446,-0.006 l -0.523483,0.51056 c -0.629312,-0.81498 -1.617213,-1.34049 -2.724381,-1.34049 z m 0,0.52916 c 0.962265,0 1.812099,0.46591 2.341975,1.18339 L 35.285189,263 c -0.0052,0.005 -0.0046,0.005 -0.0098,0 l -1.375111,-1.37304 c -0.23545,-0.23545 -0.625994,-0.23545 -0.861447,0 l -0.261482,0.25993 c -0.235389,0.23539 -0.234826,0.62497 0,0.86093 l 1.761651,1.76992 c 0.402344,0.40417 1.063244,0.40859 1.470711,0.01 l 2.067573,-2.02314 c -0.0586,1.60314 -1.268108,2.93523 -2.87786,2.93523 -1.610508,0 -2.910411,-1.29992 -2.910417,-2.91042 -5e-6,-1.61052 1.299901,-2.91197 2.910417,-2.91197 z m 3.996137,0.9431 c 0.03211,0.0321 0.03245,0.0758 0,0.10748 l -3.556887,3.48248 c -0.204237,0.2 -0.522835,0.19704 -0.724506,-0.006 l -1.761648,-1.76941 c -0.0334,-0.0336 -0.03349,-0.0802 0,-0.11368 l 0.261482,-0.26149 c 0.03323,-0.0332 0.07839,-0.0332 0.111622,0 l 1.374593,1.37511 c 0.205885,0.2054 0.547997,0.20679 0.756026,0.004 l 3.160014,-3.08198 c 0.04381,-0.0438 0.08711,-0.0281 0.117305,0.002 z"
         sodipodi:nodetypes="cscssccscscsccccccssssccsscccsscssscscsssccsssscccccssssssssccccssscsscscccsccsccscscscsscscccsccscccccccccscscscsscscccsscsccsscccccccssccccccccccsssccccccccccccccccc" />
    </g>
  </g>
</svg>
