<?xml version="1.0" encoding="utf-8"?>
<!-- Generator: Adobe Illustrator 21.0.2, SVG Export Plug-In . SVG Version: 6.00 Build 0)  -->
<svg version="1.1" id="shield" xmlns="http://www.w3.org/2000/svg" xmlns:xlink="http://www.w3.org/1999/xlink" x="0px" y="0px"
	 viewBox="0 0 128 128" style="enable-background:new 0 0 128 128;" xml:space="preserve">
<style type="text/css">
	.st0{fill:#3DB39E;}
	.st1{fill:#F99900;}
	.st2{fill:#FBD000;}
	.st3{fill:#F4B10B;}
	.st4{fill:#663210;}
	.st5{fill:#3AD0F9;}
	.st6{fill:#00B3F9;}
	.st7{fill:#FFFFFF;}
	.st8{opacity:0.5;fill:#FFFFFF;}
</style>
<g>
	<circle class="st0" cx="64" cy="64" r="64"/>
	<path class="st1" d="M105.1,42.2c0.8-3.2-1-7-4-8.4L70.2,18.9c-3-1.4-7.9-1.5-10.8-0.1l-32.3,15c-3,1.4-4.8,5.2-4,8.4l10.9,44.7
		c0.8,3.2,3.7,7.3,6.4,9.1l19.5,12.7c2.8,1.8,7.2,1.7,10-0.1l18.1-12.5c2.7-1.9,5.6-6,6.4-9.2L105.1,42.2z"/>
	<path class="st2" d="M98.4,43.8c0.5-2.1-0.7-4.7-2.7-5.6L68.3,24.8c-2-1-5.2-1-7.2-0.1L32.5,38.2c-2,0.9-3.2,3.5-2.7,5.6l9.5,40.6
		c0.5,2.1,2.4,4.9,4.2,6.1l17.9,11.8c1.8,1.2,4.8,1.2,6.6-0.1l16.7-11.6c1.8-1.3,3.7-4,4.2-6.2L98.4,43.8z"/>
	<path class="st3" d="M30.1,45.4c0.5-1.1,1.3-2,2.3-2.5l28.6-13.4c2-0.9,5.2-0.9,7.2,0.1l27.4,13.3c1,0.5,1.8,1.4,2.3,2.5l0.4-1.6
		c0.5-2.1-0.7-4.7-2.7-5.6L68.3,24.8c-2-1-5.2-1-7.2-0.1L32.5,38.2c-2,0.9-3.2,3.5-2.7,5.6L30.1,45.4z"/>
	<path class="st3" d="M63.4,47.8c0.5-1,1.3-1,1.8,0l3.5,7.2c0.5,1,1.8,1.9,2.9,2.1l7.9,1.2c1.1,0.2,1.3,0.9,0.5,1.7l-5.7,5.6
		c-0.8,0.8-1.3,2.3-1.1,3.4l1.4,7.9c0.2,1.1-0.5,1.6-1.4,1L66.1,74c-1-0.5-2.6-0.5-3.5,0l-7.1,3.7c-1,0.5-1.6,0-1.4-1l1.4-7.9
		c0.2-1.1-0.3-2.6-1.1-3.4l-5.7-5.6c-0.8-0.8-0.5-1.5,0.5-1.7l7.9-1.2c1.1-0.2,2.4-1.1,2.9-2.1L63.4,47.8z"/>
	<path class="st4" d="M65,104h-1c-1.4,0-2.2-0.3-3.2-1L42.9,91.2c-2.1-1.4-4.1-4.3-4.7-6.7L28.8,44c-0.6-2.6,0.9-5.6,3.3-6.7
		l28.6-13.4c1.1-0.5,2.5-0.8,4-0.8c1.5,0,3,0.3,4.1,0.8l27.4,13.3c2.4,1.2,3.8,4.2,3.2,6.8l-9.5,40.6c-0.6,2.4-2.6,5.4-4.6,6.8
		l-16.7,11.6C67.5,103.7,66.5,104,65,104z M64.6,25.1c-1.2,0-2.3,0.2-3.1,0.6L32.9,39.1c-1.6,0.7-2.6,2.8-2.2,4.5l9.5,40.6
		c0.4,1.9,2.2,4.4,3.8,5.5l17.9,11.8c0.7,0.5,1.7,0.7,2.7,0.7c1.1,0,2.1-0.3,2.8-0.8l16.7-11.6c1.6-1.1,3.3-3.7,3.8-5.6l9.5-40.6
		c0.4-1.7-0.6-3.8-2.2-4.5L67.9,25.7C67,25.3,65.8,25.1,64.6,25.1z"/>
	<path class="st4" d="M65,44c-0.6,0-1-0.4-1-1V24.5c0-0.6,0.4-1,1-1c0.6,0,1,0.4,1,1V43C66,43.6,65.6,44,65,44z"/>
	<path class="st4" d="M65,103.5c-0.6,0-1-0.4-1-1v-32c0-0.6,0.4-1,1-1c0.6,0,1,0.4,1,1v32C66,103.1,65.6,103.5,65,103.5z"/>
	<path class="st5" d="M63.4,44.4c0.5-1,1.3-1,1.8,0l3.5,7.2c0.5,1,1.8,1.9,2.9,2.1l7.9,1.2c1.1,0.2,1.3,0.9,0.5,1.7l-5.7,5.6
		c-0.8,0.8-1.3,2.3-1.1,3.4l1.4,7.9c0.2,1.1-0.5,1.6-1.4,1l-7.1-3.7c-1-0.5-2.6-0.5-3.5,0l-7.1,3.7c-1,0.5-1.6,0-1.4-1l1.4-7.9
		c0.2-1.1-0.3-2.6-1.1-3.4l-5.7-5.6c-0.8-0.8-0.5-1.5,0.5-1.7l7.9-1.2c1.1-0.2,2.4-1.1,2.9-2.1L63.4,44.4z"/>
	<path class="st6" d="M55,63.2l0.3-2c0.2-1.1-0.3-2.6-1.1-3.4l-3.4-3.3l-1.8,0.3c-1.1,0.2-1.3,0.9-0.5,1.7l5.7,5.6
		C54.6,62.4,54.9,62.8,55,63.2z"/>
	<path class="st6" d="M79.5,54.8l-1.8-0.3l-3.4,3.3c-0.8,0.8-1.3,2.3-1.1,3.4l0.3,2c0.2-0.4,0.4-0.8,0.7-1.1l5.7-5.6
		C80.9,55.7,80.6,55,79.5,54.8z"/>
	<path class="st6" d="M74.1,70.3c-0.2,0.1-0.6,0-0.9-0.2l-7.1-3.7c-1-0.5-2.6-0.5-3.5,0l-7.1,3.7c-0.4,0.2-0.7,0.2-0.9,0.2l-0.5,3
		c-0.2,1.1,0.5,1.6,1.4,1l7.1-3.7c1-0.5,2.6-0.5,3.5,0l7.1,3.7c1,0.5,1.6,0,1.4-1L74.1,70.3z"/>
	<path class="st4" d="M66,111h-2c-2,0-3.3-0.5-4.7-1.5L39.8,96.8c-3-1.9-6-6.3-6.9-9.7L22.1,42.4c-0.9-3.7,1.2-7.9,4.6-9.5l32.3-15
		c1.5-0.7,3.9-0.9,6-0.9c2.2,0,4.1,0.3,5.7,1l30.8,14.9c3.4,1.6,5.4,5.9,4.5,9.6L95.2,87.1c-0.8,3.4-3.9,7.8-6.8,9.8l-18.1,12.5
		C68.8,110.4,68.1,111,66,111z M65,19c-1.9,0-3.9,0.2-5.2,0.8l-32.3,15c-2.5,1.2-4.1,4.5-3.5,7.2l10.9,44.7c0.7,3,3.5,6.8,6,8.5
		l19.5,12.7c1.1,0.7,2.7,1.2,4.3,1.2h0c1.7,0,3.4-0.5,4.5-1.3l18.1-12.5c2.5-1.7,5.2-5.7,6-8.6L104.1,42c0.7-2.7-0.9-6.1-3.5-7.3
		L69.8,19.8C68.5,19.2,66.9,19,65,19z"/>
	<path class="st4" d="M73.9,75.6c-0.4,0-0.8-0.1-1.2-0.3l-7.1-3.7c-0.6-0.3-2-0.3-2.6,0l-7.1,3.7c-1,0.5-1.9,0.4-2.5-0.3
		c-0.3-0.3-0.5-0.9-0.4-1.8l1.4-7.9c0.1-0.8-0.3-1.9-0.8-2.5l-5.7-5.6c-0.7-0.6-0.9-1.4-0.7-2.1c0.2-0.7,0.9-1.2,1.8-1.3l7.9-1.2
		c0.8-0.1,1.8-0.8,2.1-1.5l3.5-7.2c0.4-0.8,1.1-1.3,1.8-1.3c0.7,0,1.4,0.5,1.8,1.3l3.5,7.2c0.3,0.7,1.3,1.4,2.1,1.5l7.9,1.2
		c0.9,0.1,1.6,0.6,1.8,1.3c0.2,0.7,0,1.5-0.7,2.1L75,62.8c-0.6,0.5-0.9,1.7-0.8,2.5l1.4,7.9c0.2,0.9-0.1,1.5-0.4,1.8
		C74.9,75.4,74.4,75.6,73.9,75.6z M64.3,69.2c0.8,0,1.6,0.2,2.2,0.5l7.1,3.7l-1.3-7.9c-0.2-1.4,0.4-3.2,1.4-4.3l5.7-5.6l-7.9-1.1
		c-1.4-0.2-3-1.3-3.6-2.6l-3.5-7.1L60.8,52c-0.6,1.3-2.2,2.4-3.6,2.6l-7.9,1.1l5.7,5.6c1,1,1.6,2.8,1.4,4.3L55,73.5l7.1-3.7
		C62.7,69.4,63.5,69.2,64.3,69.2z"/>
	<path class="st7" d="M50,90.1c-0.2,0-0.4-0.1-0.6-0.2l-3.7-2.4c-1.3-0.9-2.6-2.7-3-4.2l-5.3-22c-0.1-0.5,0.2-1.1,0.7-1.2
		c0.5-0.1,1.1,0.2,1.2,0.7l5.3,22c0.2,1,1.2,2.4,2.1,3l3.7,2.4c0.5,0.3,0.6,0.9,0.3,1.4C50.6,89.9,50.3,90.1,50,90.1z"/>
	<path class="st7" d="M34.2,35.1c-0.4,0-0.7-0.2-0.9-0.6c-0.2-0.5,0-1.1,0.5-1.3l8.6-4c0.5-0.2,1.1,0,1.3,0.5c0.2,0.5,0,1.1-0.5,1.3
		l-8.6,4C34.4,35.1,34.3,35.1,34.2,35.1z"/>
	<path class="st7" d="M98.9,37.1c-0.1,0-0.3,0-0.4-0.1L68,22.4c-1.7-0.8-4.6-0.8-6.4,0l-11.1,5.2c-0.5,0.2-1.1,0-1.3-0.5
		c-0.2-0.5,0-1.1,0.5-1.3l11.1-5.2c2.3-1.1,5.8-1,8.1,0l30.5,14.6c0.5,0.2,0.7,0.8,0.5,1.3C99.7,36.9,99.3,37.1,98.9,37.1z"/>
	<path class="st8" d="M69.1,69.1c-0.2,0-0.3,0-0.5-0.1l-3-1.6c-0.7-0.4-1.9-0.4-2.6,0c-0.5,0.3-1.1,0.1-1.4-0.4
		c-0.3-0.5-0.1-1.1,0.4-1.3c1.3-0.7,3.2-0.7,4.5,0l3,1.6c0.5,0.3,0.7,0.9,0.4,1.4C69.8,69,69.5,69.1,69.1,69.1z"/>
	<path class="st8" d="M71.1,61.9c-0.3,0-0.5-0.1-0.7-0.3c-0.4-0.4-0.4-1,0-1.4l2.4-2.4l-3.4-0.5c-1.4-0.2-3-1.3-3.6-2.6l-1.5-3.1
		c-0.2-0.5,0-1.1,0.5-1.3c0.5-0.2,1.1,0,1.3,0.5l1.5,3.1c0.3,0.7,1.3,1.4,2.1,1.5l3.4,0.5c0.9,0.1,1.6,0.6,1.8,1.3
		c0.2,0.7,0,1.5-0.7,2.1l-2.5,2.4C71.6,61.8,71.3,61.9,71.1,61.9z"/>
	<path class="st8" d="M109,89c-2.2,0-4-1.8-4-4c0-2.2,1.8-4,4-4c2.2,0,4,1.8,4,4C113,87.2,111.2,89,109,89z M109,82.8
		c-1.2,0-2.1,1-2.1,2.1c0,1.2,1,2.1,2.1,2.1c1.2,0,2.1-1,2.1-2.1C111.1,83.8,110.2,82.8,109,82.8z"/>
	<path class="st8" d="M21,90c-2.2,0-4-1.8-4-4c0-2.2,1.8-4,4-4c2.2,0,4,1.8,4,4C25,88.2,23.2,90,21,90z M21,83.9
		c-1.2,0-2.1,1-2.1,2.1c0,1.2,1,2.1,2.1,2.1c1.2,0,2.1-1,2.1-2.1C23.1,84.8,22.2,83.9,21,83.9z"/>
	<path class="st8" d="M39,20c-2.2,0-4-1.8-4-4c0-2.2,1.8-4,4-4c2.2,0,4,1.8,4,4C43,18.2,41.2,20,39,20z M39,13.9
		c-1.2,0-2.1,1-2.1,2.1c0,1.2,1,2.1,2.1,2.1c1.2,0,2.1-1,2.1-2.1C41.1,14.8,40.2,13.9,39,13.9z"/>
	<path class="st8" d="M19.2,56.4c0-0.3-0.4-0.7-0.9-0.8l-1.7-0.3c-0.5-0.1-0.9-0.5-1-1l-0.3-1.7c-0.1-0.5-0.4-0.9-0.8-0.9
		c-0.3,0-0.7,0.4-0.8,0.9l-0.3,1.7c-0.1,0.5-0.5,0.9-1,1L11,55.7c-0.5,0.1-0.9,0.4-0.9,0.8c0,0.3,0.4,0.7,0.9,0.8l1.7,0.3
		c0.5,0.1,0.9,0.5,1,1l0.3,1.7c0.1,0.5,0.4,0.9,0.8,0.9c0.3,0,0.7-0.4,0.8-0.9l0.3-1.9c0.1-0.5,0.5-0.9,1-0.9l1.6-0.1
		C18.8,57.1,19.2,56.8,19.2,56.4z"/>
	<path class="st8" d="M117.8,61c0-0.4-0.4-0.8-1-0.9l-1.9-0.3c-0.5-0.1-1.1-0.6-1.1-1.1l-0.3-1.9c-0.1-0.5-0.5-1-0.9-1
		c-0.4,0-0.8,0.4-0.9,1l-0.3,1.9c-0.1,0.5-0.6,1.1-1.1,1.1l-1.9,0.3c-0.5,0.1-1,0.5-1,0.9c0,0.4,0.4,0.8,1,0.9l1.9,0.3
		c0.5,0.1,1.1,0.6,1.1,1.1l0.3,1.9c0.1,0.5,0.5,1,0.9,1c0.4,0,0.8-0.4,0.9-1l0.3-2.1c0.1-0.5,0.6-1,1.1-1.1l1.8-0.1
		C117.4,61.7,117.8,61.4,117.8,61z"/>
	<path class="st8" d="M93.3,110c0-0.4-0.4-0.8-1-0.9l-1.9-0.3c-0.5-0.1-1.1-0.6-1.1-1.1l-0.3-1.9c-0.1-0.5-0.5-1-0.9-1
		s-0.8,0.4-0.9,1l-0.3,1.9c-0.1,0.5-0.6,1.1-1.1,1.1l-1.9,0.3c-0.5,0.1-1,0.5-1,0.9s0.4,0.8,1,0.9l1.9,0.3c0.5,0.1,1.1,0.6,1.1,1.1
		l0.3,1.9c0.1,0.5,0.5,1,0.9,1s0.8-0.4,0.9-1l0.3-2.1c0.1-0.5,0.6-1,1.1-1.1l1.8-0.1C92.9,110.7,93.3,110.4,93.3,110z"/>
	<path class="st7" d="M87.2,41.9c0-0.4-0.4-0.8-1-0.9l-4.8-0.8c-0.5-0.1-1.1-0.6-1.2-1.2l-0.8-4.8c-0.1-0.5-0.5-1-0.9-1
		c-0.4,0-0.8,0.4-0.9,1l-0.8,4.8c-0.1,0.5-0.6,1.1-1.2,1.2l-4.8,0.8c-0.5,0.1-1,0.5-1,0.9c0,0.4,0.4,0.8,1,0.9l4.7,0.6
		c0.5,0.1,1.1,0.6,1.2,1.1l0.9,5c0.1,0.5,0.5,1,0.9,1c0.4,0,0.8-0.4,0.9-1l0.9-5.1c0.1-0.5,0.6-1,1.2-1.1l4.7-0.6
		C86.8,42.7,87.2,42.3,87.2,41.9z"/>
</g>
</svg>
