<svg id="Layer_1" data-name="Layer 1" xmlns="http://www.w3.org/2000/svg" width="64" height="64" viewBox="0 0 64 64"><defs><style>.cls-1{fill:#fff;}.cls-2{fill:#1d1d1b;}.cls-3{fill:#fab900;}</style></defs><title>star</title><g id="star"><path class="cls-1" d="M47.17,55.29a7.55,7.55,0,0,1-3.38-1.08c-.69-.38-2.31-1.41-4.2-2.59-2.1-1.32-4.47-2.82-5.69-3.51a8.52,8.52,0,0,0-2.15-.95c-1.65.84-8.68,4.58-11.09,5.92a10.89,10.89,0,0,1-5,1.66,3.6,3.6,0,0,1-1.25-.2c-1.93-.71-1.5-3.13-1.18-4.89.13-.75,1.12-4.35,2.49-9.35.37-1.37.76-2.76,1-3.63a49.12,49.12,0,0,0-6-4.61c-1.56-.93-2.51-1.45-3.07-1.76a5.33,5.33,0,0,1-1-.6,3.37,3.37,0,0,1-1-2.72A2.07,2.07,0,0,1,7,25.36a83.67,83.67,0,0,1,9.55-3.44c2.13-.53,3.88-.82,4.9-1,.71-1.58,2.24-4.91,3.24-6.87l.1-.2c1.4-2.74,2.51-4.91,4.82-5.16h.26c1.36,0,3.16.93,7.11,7.69.88,1.51,1.68,2.86,2.15,3.65,2.45.22,9.46.85,12.27,1,3.78.17,5.86.26,6.66,2.25.64,1.6-.09,2.63-8.72,9.14l-1.49,1.13A22.17,22.17,0,0,0,46,35.2c.54,2,1.8,6.6,2.69,10.18l.26,1c1.11,4.45,1.53,6.12.69,7.56A2.77,2.77,0,0,1,47.17,55.29Z"/><path class="cls-2" d="M7.68,26.92A82,82,0,0,1,17,23.57a46.25,46.25,0,0,1,5.66-1.06s2.28-5.09,3.59-7.66,2.16-4.28,3.59-4.44,4.31,4.44,5.72,6.84,2.59,4.41,2.59,4.41,9.72.91,13.22,1.06,4.78.25,5.16,1.19-8,7-9.69,8.31a21.94,21.94,0,0,0-2.69,2.5s1.78,6.41,2.94,11.06,1.66,6.41,1.13,7.31-2.16.41-3.56-.37-7.56-4.78-9.87-6.09-3.19-1.22-3.34-1.19-8.81,4.63-11.56,6.16S15.62,53.17,15,52.95s-.31-1.78-.09-3,3.69-13.59,3.69-13.78a44.68,44.68,0,0,0-7-5.56C9,29,8.06,28.6,7.84,28.42S7.18,27.13,7.68,26.92Z"/><path class="cls-3" d="M10.87,27.45c.21-.35,6.44-2.37,9.22-3s3.28-.56,3.44-.69,2.81-5.59,4.19-8.12,1.88-3.16,2.09-3.16A79.52,79.52,0,0,1,35,20.2C36.27,22.45,36.52,23,36.71,23s9.34.81,12.5,1,4.63.41,4.5.63-5.47,4.13-8,6.31S42,33.92,42.06,34.29s1.53,6.38,1.44,6.31A26.75,26.75,0,0,0,40,39c-.12.13-.66.84-.41,1.09s4.13,2,4.13,2.19.31,1.69.31,1.69-5.25-3-5.47-3-.87.56-.72.78,6.31,3.56,6.47,3.78a5.17,5.17,0,0,1,.56,1.53c-.09,0-7.72-4.5-8-4.44s-.75.94-.66,1,8.91,5.19,9.06,5.44.88,2,.69,2-7.59-4.34-10.41-5.91-3.47-1.78-4-1.75a125.62,125.62,0,0,0-11.47,5.75c-2.16,1.31-3,1.56-3.06,1.41s2.44-10.06,3-12.5.78-2.87.16-3.66a28.35,28.35,0,0,0-5.47-4.22C12.12,28.57,10.77,27.6,10.87,27.45Z"/><path class="cls-2" d="M27.06,21c-.33-.33,2.19-4.69,2.31-4.69s.81.16.88.41a34,34,0,0,1-2,4.72A3.25,3.25,0,0,1,27.06,21Z"/></g></svg>