<svg id="Layer_1" data-name="Layer 1" xmlns="http://www.w3.org/2000/svg" width="64" height="64" viewBox="0 0 64 64"><defs><style>.cls-1{fill:#fff;}.cls-2{fill:#1d1d1b;}.cls-3{fill:#e7413e;}.cls-4{fill:#a42116;}.cls-5{fill:#f2910d;}</style></defs><title>mars</title><g id="mars"><path class="cls-1" d="M33.27,59.67c-7.4,0-14-2.61-18.52-7.35C6,43.18,4.4,39.3,3.47,30.7c-1-9.23,6.93-23.84,23.9-26.12a28.41,28.41,0,0,1,3.77-.25,33.89,33.89,0,0,1,21.29,8.06c7.91,6.51,8.86,12.84,7.86,23-1,10-4.88,16.22-13,20.87A29.07,29.07,0,0,1,33.27,59.67Z"/><path class="cls-2" d="M27.6,6.26c7.77-1,16.37,1.38,23.75,7.44s8.19,11.94,7.25,21.5S54,50.45,46.41,54.76,24.54,60.08,16,51.14,6,38.58,5.16,30.51,11.29,8.45,27.6,6.26Z"/><path class="cls-3" d="M28.88,7.86c5.64-.93,12.69,1.25,17.66,4.41s7.94,7,9.19,10.41,1.41,5.88,1,10.5a31,31,0,0,1-3.44,12.47A21.26,21.26,0,0,1,47.69,52a14.18,14.18,0,0,1-2.56,1.5s-3.34-3.75-3.5-3.78-.69.25-.56.41A49.21,49.21,0,0,1,44.32,54a12,12,0,0,1-1.72.47s-3-3.16-3.09-3.16-.62.19-.56.38,2.84,2.88,2.66,3-8.47,2-14.12.34-9.15-5-13.35-9.1S6.62,34.37,7.2,28s4.67-12.79,9.21-15.58A30.45,30.45,0,0,1,28.88,7.86Z"/><path class="cls-2" d="M34.87,12.49c.82-.31,4.13-1,5.17-.08s1.46,2.88.08,3.58-5.46,1.25-6.17.75-1.62-1.54-1.37-2A5.38,5.38,0,0,1,34.87,12.49Z"/><path class="cls-4" d="M37.58,12.91c1.34,0,2.08.38,2.17.83s-.5,1.13-1.33,1.42a8.2,8.2,0,0,1-3.5.29,3,3,0,0,1-.71-1A5.53,5.53,0,0,1,37.58,12.91Z"/><path class="cls-2" d="M41.16,21.16c.43.06.25,1,1,1.5s1.21,1,1,1.46A5.86,5.86,0,0,1,40,26.66c-1.79.54-2.79.29-3.25-.71s.42-2.5,1.67-3.46S40.2,21,41.16,21.16Z"/><path class="cls-4" d="M40.29,22.58c.35-.08.13.58.79,1s1,.25.63.71a5,5,0,0,1-2.46,1.42c-.67,0-1.21-.17-.87-.87S39.7,22.7,40.29,22.58Z"/><path class="cls-2" d="M44.08,31c.52-.28,1.71.13,2.25-.33s.42-1.25,1.08-1.42,1.33.5,2.33.67,1.71,0,1.88.67-.29,2.25-.12,2.92.38,1.67.38,1.67-1.33,2-1.92,2-1-.25-1.25.17.21,1.33-.62,1.33a6.93,6.93,0,0,1-2.5-.46A8.49,8.49,0,0,0,44,37.79c-.71-.17-2-1.17-1.79-1.67S44,34.7,43.74,34,43.08,31.58,44.08,31Z"/><path class="cls-5" d="M45.66,32.45c.5-.21,1.33.5,1.83.13s.54-1.38,1.13-1.33,1.29,0,1.13.33-1,1-.67,1.75.83,1.63.63,1.92-1-.33-1.67.38-.54,1.33-1,1.29-2.71-.71-2.5-1,1-.71,1.08-1.46S45.37,32.58,45.66,32.45Z"/><path class="cls-2" d="M40.79,39.83a2.16,2.16,0,0,1,2.13-.29c.54.42.58.88,1.46.92s1.71-.62,1.79-.5.54.5.13.79-1.17.92-1.75.79-1.21-.83-1.83-.87-.75.42-1.46.38S40.7,40,40.79,39.83Z"/><path class="cls-2" d="M46.83,44.62a1.82,1.82,0,0,1,2.67,1.54c.29,1.63-.92,2.54-2.75,2S44.79,45.45,46.83,44.62Z"/><path class="cls-4" d="M47.37,45.54a.88.88,0,0,1,1.13,1.08c-.21.75-1.29.42-1.62.25S46.54,45.83,47.37,45.54Z"/><path class="cls-2" d="M48.62,39.74c.53-.18,4,3.25,3.83,3.58s0,.71-.5.5S48,41,48,40.62A1.17,1.17,0,0,1,48.62,39.74Z"/><path class="cls-2" d="M50.54,38.29c.08-.25.46-.67.71-.46s2.79,2.71,2.63,3-.21.67-.58.42A24.63,24.63,0,0,1,50.54,38.29Z"/><path class="cls-2" d="M52.58,36.29s.08-.67.38-.62,2,1.29,1.92,1.75.08.67-.21.67S52.74,36.37,52.58,36.29Z"/><path class="cls-2" d="M53.79,33.37c-.17,0,.13-.75.25-.75s1.29,1.13,1.29,1.67.21.71-.08.63S54,33.37,53.79,33.37Z"/><path class="cls-2" d="M50.83,22.58c1.08-.42,2.21-.46,2.75.88a2,2,0,0,1-2,2.83c-1.54-.12-2.25-1.08-2.12-2A1.77,1.77,0,0,1,50.83,22.58Z"/><path class="cls-5" d="M51.22,23.45c.53-.21,1.1-.23,1.37.43a1,1,0,0,1-1,1.41c-.77-.06-1.12-.54-1.06-1A.88.88,0,0,1,51.22,23.45Z"/><path class="cls-2" d="M20.87,12.16c.27-.09.75-.75,1.54-.58s.63.63,2.21.58,1.83-.5,2.17-.33.54.17.29.42a1.41,1.41,0,0,1-.75.5,3.1,3.1,0,0,1-2.5.29c-1.25-.46-1.21-.87-1.75-.62s-.46.46-.75.42S20.74,12.2,20.87,12.16Z"/><path class="cls-2" d="M25.49,16.49c1.95-.54,3.13-.21,3.79.33s.75,1,1.54,1.54A2.41,2.41,0,0,1,31.2,22,7.53,7.53,0,0,1,23.74,23c-2.87-1.25-2.21-3.58-1.42-4.42A7.61,7.61,0,0,1,25.49,16.49Z"/><path class="cls-5" d="M25.62,17.62c.5-.21,1.17.88,2.13.92s.71-.58,1.5.38,1.17,1.38.88,1.92a4.85,4.85,0,0,1-5,1c-2.17-1-2-1.71-1.58-2.37A5.5,5.5,0,0,1,25.62,17.62Z"/><path class="cls-2" d="M16,25.33c.77-.42,3.08-1,3.54-.37s0,1.79-.71,2.33-1.29,1.5-2.54,1.17-1.58-.46-1.67-1A2.19,2.19,0,0,1,16,25.33Z"/><path class="cls-4" d="M16.66,26a3.33,3.33,0,0,1,1.92-.33c.38.17.42.46-.17.92s-1.25,1.33-1.92,1.21S14.83,26.79,16.66,26Z"/><path class="cls-2" d="M26.54,30.66A1.76,1.76,0,0,1,28.87,33c-.71,2-3.79,2.92-4.83,2S23,32.45,26.54,30.66Z"/><path class="cls-5" d="M26.45,31.54c.47-.23,1.79.08,1.46,1.12s-2.17,2-2.83,1.79S23.74,32.87,26.45,31.54Z"/><path class="cls-2" d="M37,33.08c.61-.26,2.67,0,2.63,1.33S38,36.33,37,35.91,34.87,34,37,33.08Z"/><path class="cls-4" d="M37.42,33.91c.26-.11,1.13,0,1.11.57a.84.84,0,0,1-1.15.64C36.93,34.93,36.5,34.29,37.42,33.91Z"/><path class="cls-2" d="M20.87,47.87c.22-.21,1,1,2,1a1.83,1.83,0,0,0,1.46-1.17c.17-.33.17-.58.46-.62s.5,0,.38.38-.33,1.54-1,2a2.87,2.87,0,0,1-2.83,0C20.37,48.83,20.24,48.45,20.87,47.87Z"/><path class="cls-2" d="M25.08,45.33c0-.27.29-.21,1.08-.21s1.21.21,1.17,0a4.78,4.78,0,0,0-1.08-2c-.58-.42-1-.54-.87-.83s.33-.62.58-.67,2.88.25,2.75,0S28,40.29,28.33,40s1.25-.83,1.54-.67.75.67,1,.5.46-.25.46-.46-.46-1.25.08-1.54,1.79-.46,1.92,0,.42,2.38.63,2.29a4.9,4.9,0,0,1,1.25-.42,4.1,4.1,0,0,0,1.42.42c.79,0,1.92.38,1.92.71s-.17.88.13,1.13,1.83.29,2.54,1.42a3.54,3.54,0,0,1,.54,3.5c-.54,1.33-1,1.83-1.67,1.79a6.1,6.1,0,0,0-1.58-.12c-.83.08-.75.13-1.17-.21s0-.75-1.21-.37-.62.71-1.75.42-1.54-.62-2-.46-2.87,2-3.33,1.5a2.93,2.93,0,0,1-.62-.87s-.08-1.87-.5-2a13,13,0,0,0-1.83-.21A1.6,1.6,0,0,1,25.08,45.33Z"/><path class="cls-4" d="M28.83,43.7c0-.34,1-.42,1.08-.67s.29-1,.46-1a10,10,0,0,0,1.5-.75c.29-.25.42-.62.71-.5s.5,1.13,1.13.83A2.33,2.33,0,0,1,35,41.2c.79-.08,2.13.25,2,.42s-.46,1.38-.17,1.58,2.88,1,3.13,1.38a2.77,2.77,0,0,1-.12,1.83,2.21,2.21,0,0,1-.62.71S37.37,46,36.87,46.2a14.92,14.92,0,0,1-1.54.58l-1.75-.12a3.26,3.26,0,0,0-1.46.25c-.38.17-1.29,1-1.67.71a1.69,1.69,0,0,1-.75-1.29A27.64,27.64,0,0,0,28.83,43.7Z"/><path class="cls-2" d="M30.45,43.91s.58-.46.71-.21S33.08,45.79,32.7,46a2.33,2.33,0,0,1-1,.29S30.54,44.2,30.45,43.91Z"/><path class="cls-2" d="M32.45,43.45s.21-.37.46-.37,2.88,2.21,2.58,2.38a1.9,1.9,0,0,1-1.08.21A27.09,27.09,0,0,1,32.45,43.45Z"/><path class="cls-2" d="M30.33,53.2a2.4,2.4,0,0,1,1.83-.42c.46.25.71.63,1.13.42s.71-.71,1.17-.5.33.33.79.42a11.49,11.49,0,0,0,2.38,0c.29-.08.29.67.17.75a3.29,3.29,0,0,1-1.29.21,8.75,8.75,0,0,1-2.08-.42c-.37-.12-.87.79-1.67.54s-.46-.58-.92-.42-.71.5-1.17.25A.75.75,0,0,1,30.33,53.2Z"/><path class="cls-2" d="M43.58,49.29c-.23-.35.58-.67,1-.42s2.17,2.29,2,2.5-.21.58-.67.38A15.24,15.24,0,0,1,43.58,49.29Z"/><path class="cls-2" d="M26.37,25.91c.39-.23,1.08.54,2.17.42s1.13-.71,2-.5,1.5.54,1.42.75,0,.38-.29.38-1.25-.37-1.75-.17-.46.42-1.42.38-1.25-.5-1.75-.33-.67.42-.92,0S25.87,26.2,26.37,25.91Z"/><path class="cls-2" d="M47.54,17.37A1,1,0,0,1,49,18c.13.63-.87,1.21-1.54.88S47.08,17.62,47.54,17.37Z"/><path class="cls-2" d="M18.79,16.79a1,1,0,0,1,1.46.67c.13.63-.87,1.21-1.54.88S18.33,17,18.79,16.79Z"/><path class="cls-2" d="M19.54,37.45a1,1,0,0,1,1.46.67c.13.63-.87,1.21-1.54.88S19.08,37.7,19.54,37.45Z"/><path class="cls-2" d="M18.62,44.58a1,1,0,0,1,1.46.67c.13.63-.87,1.21-1.54.88S18.16,44.83,18.62,44.58Z"/><path class="cls-2" d="M10.12,30.7c.07-.42,1.71.13,2.29,0s.88-.37,1,0,.42.71.17.83a6,6,0,0,1-1.67.17,6.8,6.8,0,0,0-1.29,0C10.08,31.91,10.08,31,10.12,30.7Z"/><path class="cls-2" d="M12.12,36.29c.24-.24,2.13-.21,2.33.25s.46.88-.17.92-2.42.13-2.46-.08A1.78,1.78,0,0,1,12.12,36.29Z"/></g></svg>