<svg id="Layer_1" data-name="Layer 1" xmlns="http://www.w3.org/2000/svg" width="64" height="64" viewBox="0 0 64 64"><defs><style>.cls-1{fill:#fff;}.cls-2{fill:#1d1d1b;}.cls-3{fill:#e7413e;}.cls-4{fill:#fab900;}.cls-5{fill:#ffe19b;}.cls-6{fill:#1f4863;}.cls-7{fill:#e6e4da;}.cls-8{fill:#85bfe9;}.cls-9{fill:#696a9b;}.cls-10{fill:#92a0d1;}.cls-11{fill:#a42116;}.cls-12{fill:#f2910d;}.cls-13{fill:#cbe7f5;}</style></defs><title>mission-control</title><g id="mission-control"><path class="cls-1" d="M38.15,57.12c-5.46,0-11.65,0-14.82-.05-7.55-.05-8.4-.3-9-1.44-.15-.26-.28-.49-1.94-8.09-1.05.12-2.4.25-3.29.25a2.35,2.35,0,0,1-2.32-1.07c-.27-.55-1.34-5-1.66-6.35C3.52,33.82,3.62,33.7,4.25,33a3,3,0,0,1,1.11-.77C4.13,25.9,2.37,17,2.11,16c-.54-1.45-.2-3.93,1.84-4.76A40.67,40.67,0,0,1,10.79,10a37.81,37.81,0,0,1,3.89-.2l1.12,0A6.93,6.93,0,0,1,20.13,7.1a32.28,32.28,0,0,1,4.72-.22c2.39,0,5.29.07,7.84.14,2.05.05,3.91.1,5.15.1,2.3,0,7.79.17,9,1.76a3.72,3.72,0,0,1,.46.85c.86-.09,2.09-.18,3.74-.2h.71l1.57,0c2.38,0,8.7,0,8.81,4.85.08,3.5-2.8,18.46-3.32,21.09a29.25,29.25,0,0,1-.23,7.44c-.87,3.5-2.06,5.33-3.51,5.45h-.28c-.47,0-1.51-.07-2.41-.14-1.87,8.11-2.31,8.29-3.13,8.63C48.82,57,48.6,57.12,38.15,57.12Z"/><path class="cls-2" d="M4.59,12.82A42,42,0,0,1,11,11.65a34.56,34.56,0,0,1,5.75-.12,5.23,5.23,0,0,1,3.71-2.75c2.67-.46,13.33,0,17.42,0s7.25.58,7.63,1.08A5.45,5.45,0,0,1,46,11.65a23,23,0,0,1,5-.42c3.63,0,9.29-.37,9.38,3.17s-3.33,21-3.33,21,.42,4.79-.17,7.13-1.5,4.13-2,4.17S51,46.4,51,46.4s-2,8.67-2.46,8.88-18.92.13-25.25.08-7.42-.29-7.58-.58-2.08-9.12-2.08-9.12-5.21.71-5.42.29-3-11.58-2.71-11.87a7.92,7.92,0,0,1,1.75-.83S4,16.07,3.71,15.45,3.46,13.28,4.59,12.82Z"/><path class="cls-3" d="M46.63,13c.33,0,4.54,0,7,0s4.88.29,5,1.21S57.25,25.2,56.84,29a16.6,16.6,0,0,1-1.33,5.54,49.27,49.27,0,0,0-6.25-1.79,21.76,21.76,0,0,1-3.79-1s.83-6.67,1-10.54S46.63,13,46.63,13Z"/><path class="cls-2" d="M50.09,23.24c1.88-.45,6,.33,5.63,5s-5.58,5.46-7.58,3.38S46,24.2,50.09,23.24Z"/><path class="cls-4" d="M50.31,24.13c1.52-.36,4.85.27,4.55,4a3.74,3.74,0,0,1-6.13,2.73C47.11,29.22,47,24.91,50.31,24.13Z"/><path class="cls-2" d="M50.62,25.35a2.46,2.46,0,0,1,3.08,2.74,2.53,2.53,0,0,1-4.15,1.85C48.45,28.8,48.4,25.88,50.62,25.35Z"/><path class="cls-5" d="M50.84,26.22a1.62,1.62,0,0,1,2,1.81,1.67,1.67,0,0,1-2.74,1.22C49.41,28.5,49.38,26.57,50.84,26.22Z"/><path class="cls-3" d="M5.63,13.86A26.34,26.34,0,0,1,11,13c2.54-.21,5-.25,5.08,0S17.84,31.82,17.71,32a54.34,54.34,0,0,1-8.29,1C9.17,32.86,5.3,15.24,5.63,13.86Z"/><path class="cls-6" d="M19.13,23.74s-1-11-.92-11.25.46-1.83,3.08-2.17,8.33-.12,13.62.08,9.21.75,9.38,1.25.25,9,.17,12.25-.71,7.67-1,7.67H39.8a7.5,7.5,0,0,0-3.42-1.62c-2.12-.42-3.25-.58-3.25-.58s.79-5.12-2.75-7.58a7.71,7.71,0,0,0-8.08-.54A13,13,0,0,0,19.13,23.74Z"/><path class="cls-7" d="M19.3,25.32c.17-.12,1.88-2.58,4-3.37a7.43,7.43,0,0,1,3.92-.37A2.25,2.25,0,0,0,26,23.65c.17,1.38,1.75,1.63,2.58,1.38s.88-1,.58-1.17-.92.38-1.29.38-1.12-1-.58-1.54a1.78,1.78,0,0,1,1.54-.5,5,5,0,0,1,2.92,3.58c.54,2.54.17,3.33.17,3.33s-2.79-.17-3.12-.08a9.19,9.19,0,0,0-1,.38s-.33-.87-.46-.79-.54,1.38-1.71,1.13-1.83-2.08-.71-2.33L26,27.15s-.08-.67-.58-.67-1.87.21-2,1.46,0,1.92.83,2.42a4.15,4.15,0,0,0,1.92.5l-.62,1.08s-5.75.29-5.83.17S19.3,25.32,19.3,25.32Z"/><path class="cls-8" d="M7.67,35.15c.16-.25,4.58-.67,7.67-1.12A95.08,95.08,0,0,1,25,33.57a50.83,50.83,0,0,1-1.25,5c-.21.13-5.83,1.42-6,1.58s.71,3.21.5,3.25-8.33.88-8.46.75S7.46,35.49,7.67,35.15Z"/><path class="cls-8" d="M47.71,41.74s.21-2.71.5-2.75,6,1.08,6,1.33-.42,2.63-.67,2.63a15.32,15.32,0,0,0-1.71-.33c-.17.08-.62,1.46-.46,1.58a7.06,7.06,0,0,0,2.54.5A19.88,19.88,0,0,0,55.38,40a8.24,8.24,0,0,0,.13-3.54,75.6,75.6,0,0,0-10-2.75,30.41,30.41,0,0,0-5.83-.46l.79,4.67a38.3,38.3,0,0,1,5.13,2c.92.63.63,2.42.5,2.88a4.75,4.75,0,0,1-.42,1l3.71.38.08-1.67Z"/><path class="cls-9" d="M28.75,31c.93-.65,4.46.13,5.54.17a7.12,7.12,0,0,1,3.08,1c.17.25,1.08,7.17,1.29,7.33S44,41.15,44.25,41.7,42.92,44.78,42,45.61a11.09,11.09,0,0,1-1.46,1.21,21.57,21.57,0,0,0-2-3c-.25,0-1,.17-.79.54s2.13,2.75,2,2.92a6.42,6.42,0,0,1-1.25.58,37.8,37.8,0,0,0-2.37-3c-.17,0-.87.21-.79.38a27,27,0,0,1,2,3.17,2.17,2.17,0,0,1-.75.33S34,45.28,33.84,45.32s-.71.33-.58.5,2.5,3,2.33,3.08a12.6,12.6,0,0,1-1.79.38,25.42,25.42,0,0,0-2.42-3c-.25,0-.71.42-.62.58a26.76,26.76,0,0,1,2,2.75c-.12.13-.92.5-.83,1a32.21,32.21,0,0,1,.62,3.67,23.57,23.57,0,0,1-2.46,0,36.37,36.37,0,0,0,.5-3.87c-.12-.12-5.12-1.21-8-3.92s-3-4.79-2.75-4.92,5.83-1.58,5.92-1.83,1.21-5.87,1.46-6.5A6.23,6.23,0,0,1,28.75,31Z"/><path class="cls-10" d="M15.5,45.82c.2-.07,3.33-.5,3.33-.5a10.15,10.15,0,0,0,2.63,2.54,37,37,0,0,0,6.38,3.08l.58.21A21.81,21.81,0,0,1,28.55,54c-.12,0-2.25.08-2.25.08a19.63,19.63,0,0,0-1.58-3.29c-.29-.08-.79.13-.71.25S25.13,54,25.13,54l-1.25,0s-1.75-3.67-2-3.71-1,.08-.83.25,2,3.38,1.71,3.42-1.33.08-1.33.08-1.58-3-1.75-3-.71.25-.67.38A18.53,18.53,0,0,1,20,53.95a24.42,24.42,0,0,1-3-.12C16.88,53.7,15.38,45.86,15.5,45.82Z"/><path class="cls-10" d="M34.42,51.32a18.9,18.9,0,0,0,5.5-1.92,16.83,16.83,0,0,0,4.67-4,38,38,0,0,1,4.79.46c0,.21-.37,2.38-.37,2.38s-.54-1.33-.71-1.29-.83.38-.67.54A12,12,0,0,1,48.71,50c0,.21-.42,1.54-.42,1.54a31.11,31.11,0,0,0-1.67-2.67c-.12,0-.83.25-.71.46s2,3.38,2,3.63-.17,1.5-.17,1.5l-.42-.08s-2.46-4.42-2.62-4.42a3,3,0,0,0-.75.42l2.33,4.08H45A37,37,0,0,0,43,51.07c-.17,0-.75.25-.75.42s1.79,2.92,1.63,3a11.74,11.74,0,0,1-1.29,0s-1.12-2.29-1.37-2.29-.92.13-.83.29l1,2h-1s-.62-1.54-.87-1.58-.92.13-.83.25.54,1.38.38,1.38a34.94,34.94,0,0,1-4.21-.08A15.56,15.56,0,0,1,34.42,51.32Z"/><path class="cls-2" d="M51.07,27.14A.74.74,0,0,1,52,28a.77.77,0,0,1-1.26.56C50.41,28.18,50.4,27.3,51.07,27.14Z"/><path class="cls-2" d="M7.3,15.28c.29-.12,3.83-.62,4-.29a20.3,20.3,0,0,1,.42,4.63A13.71,13.71,0,0,1,8,20.07,36.5,36.5,0,0,1,7.3,15.28Z"/><path class="cls-2" d="M12.46,14.9c.25,0,2.38-.5,2.46-.12s.25.75,0,.79a12.21,12.21,0,0,1-2.42.25C12.38,15.7,12.46,14.9,12.46,14.9Z"/><path class="cls-2" d="M12.67,16.78c.25,0,2.38-.5,2.46-.12s.25.75,0,.79a12.21,12.21,0,0,1-2.42.25C12.59,17.57,12.67,16.78,12.67,16.78Z"/><path class="cls-7" d="M8.46,16.24a8.12,8.12,0,0,1,2-.17c.08.13.29,2.63.29,2.63s-1.87.46-1.92.29S8.46,16.24,8.46,16.24Z"/><path class="cls-2" d="M8.25,21.36c.17,0,7.17-1,7.25-.83s.25.63,0,.75-7.21,1.17-7.29,1S8,21.4,8.25,21.36Z"/><path class="cls-2" d="M8.55,23.15c.17,0,7.17-1,7.25-.83s.25.63,0,.75-7.21,1.17-7.29,1S8.34,23.2,8.55,23.15Z"/><path class="cls-2" d="M8.84,25.2c.17,0,7.17-1,7.25-.83s.25.63,0,.75-7.21,1.17-7.29,1S8.63,25.24,8.84,25.2Z"/><path class="cls-2" d="M10,27.95a1.78,1.78,0,0,1,2.71.92,1.74,1.74,0,0,1-2.46,2A1.66,1.66,0,0,1,10,27.95Z"/><path class="cls-4" d="M10.56,28.63a.89.89,0,0,1,1.35.46.87.87,0,0,1-1.23,1A.83.83,0,0,1,10.56,28.63Z"/><path class="cls-2" d="M14.13,27.53a1.78,1.78,0,0,1,2.71.92,1.74,1.74,0,0,1-2.46,2A1.66,1.66,0,0,1,14.13,27.53Z"/><path class="cls-4" d="M14.64,28.21a.89.89,0,0,1,1.35.46.87.87,0,0,1-1.23,1A.83.83,0,0,1,14.64,28.21Z"/><path class="cls-2" d="M25,16.65A1.22,1.22,0,0,1,26.71,18a1.33,1.33,0,0,1-2.25.5C23.92,17.86,24,17.2,25,16.65Z"/><path class="cls-2" d="M27.17,13.4c.09-.23,1.17-.75,1.71-.12s.29,1.38-.29,1.5S26.8,14.36,27.17,13.4Z"/><path class="cls-2" d="M41,17.28a3.25,3.25,0,0,0,0-2.37c-.5-1.46-2.42-1.37-2.42-1.37-1.87-1.62-3.25-.87-3.54,0s.75,2.67.75,2.67a2.73,2.73,0,0,0,.46,1.63,2.42,2.42,0,0,0,1.46,1,9.93,9.93,0,0,0,1.38,1c.33.13,1.58.71,2.38-.12S41,17.28,41,17.28ZM36.63,14.4a4,4,0,0,1-.37.46S35.5,14,36,13.53s1.29.38,1.29.38A2,2,0,0,0,36.63,14.4Zm4.21,4.79c-.33.38-1.37-.37-1.37-.37a1.21,1.21,0,0,0,.54-.25,5,5,0,0,0,.5-.5S41.17,18.82,40.84,19.2Z"/><path class="cls-7" d="M38.71,14.61a1.79,1.79,0,0,1,1.67,1.92,1.68,1.68,0,0,1-2.83,1C36.38,16.36,36.88,14.36,38.71,14.61Z"/><path class="cls-2" d="M38,22.2c.52-.43,1.92-.46,2.13.5a1.26,1.26,0,0,1-1.54,1.58C37.46,24.11,37.55,22.57,38,22.2Z"/><path class="cls-7" d="M38.53,22.71c.22-.18.83-.2.92.22a.54.54,0,0,1-.66.68C38.3,23.54,38.33,22.88,38.53,22.71Z"/><path class="cls-2" d="M48.46,13.95c.1-.14.83-.12.83,0s.08,2.25.08,2.25a6.06,6.06,0,0,0,2.13.17c.83-.17,1.17-.33,1.42.17a8.54,8.54,0,0,1,.46,1.63,1,1,0,0,1,.92-.37c.63,0,.83.08,1,0a12.92,12.92,0,0,1,1.33-.46s.25.75.08.88a4.59,4.59,0,0,1-1.33.46c-.25,0-1.21,0-1.37.21s-.08.67-.08.88.5.33.88.71.42.58.25.67a3.5,3.5,0,0,1-1.42-.46A2.55,2.55,0,0,1,53,19.9c-.17-.25-.25-.62-.62-.87s0-.17-.37-.25-.87-.17-1,.17a2,2,0,0,1-.75,1.17,5.34,5.34,0,0,0-.87.63,10.68,10.68,0,0,1,2.71.25c1.58.33,3.92.54,4,.71a4,4,0,0,1-.17.92s-7.62-.87-7.79-1.08A65.56,65.56,0,0,1,48.46,13.95Z"/><path class="cls-11" d="M49.5,17.36a7,7,0,0,0,1.42,0c.67-.08,1.13-.37,1.33-.17a1.73,1.73,0,0,1,.29.75,3.19,3.19,0,0,0-1.67,0A2,2,0,0,0,50,19c-.17.33-.25.58-.54.71S49.5,17.36,49.5,17.36Z"/><path class="cls-2" d="M9.3,36a10.36,10.36,0,0,1,2.83-.25,14.35,14.35,0,0,1,.58,3.38,12.51,12.51,0,0,1-2.79.38A10,10,0,0,1,9.3,36Z"/><path class="cls-3" d="M10.05,36.75a5.73,5.73,0,0,1,1.57-.14,8,8,0,0,1,.32,1.87,6.93,6.93,0,0,1-1.55.21A5.54,5.54,0,0,1,10.05,36.75Z"/><path class="cls-2" d="M13.13,35.57A10.36,10.36,0,0,1,16,35.32a14.35,14.35,0,0,1,.58,3.38,12.51,12.51,0,0,1-2.79.38A10,10,0,0,1,13.13,35.57Z"/><path class="cls-5" d="M13.89,36.29a5.73,5.73,0,0,1,1.57-.14A8,8,0,0,1,15.78,38a6.93,6.93,0,0,1-1.55.21A5.54,5.54,0,0,1,13.89,36.29Z"/><path class="cls-2" d="M17.94,35.52a1.47,1.47,0,0,1,2.23.75,1.43,1.43,0,0,1-2,1.61A1.37,1.37,0,0,1,17.94,35.52Z"/><path class="cls-12" d="M18.36,36.09a.73.73,0,0,1,1.11.38.71.71,0,0,1-1,.8A.68.68,0,0,1,18.36,36.09Z"/><path class="cls-2" d="M21.44,35.31a1.47,1.47,0,0,1,2.23.75,1.43,1.43,0,0,1-2,1.61A1.37,1.37,0,0,1,21.44,35.31Z"/><path class="cls-4" d="M21.86,35.88a.73.73,0,0,1,1.11.38.71.71,0,0,1-1,.8A.68.68,0,0,1,21.86,35.88Z"/><path class="cls-2" d="M10.73,40.56a1.47,1.47,0,0,1,2.23.75,1.43,1.43,0,0,1-2,1.61A1.37,1.37,0,0,1,10.73,40.56Z"/><path class="cls-5" d="M11.15,41.13a.73.73,0,0,1,1.11.38.71.71,0,0,1-1,.8A.68.68,0,0,1,11.15,41.13Z"/><path class="cls-2" d="M14.52,40.15a1.47,1.47,0,0,1,2.23.75,1.43,1.43,0,0,1-2,1.61A1.37,1.37,0,0,1,14.52,40.15Z"/><path class="cls-13" d="M14.94,40.71a.73.73,0,0,1,1.11.38.71.71,0,0,1-1,.8A.68.68,0,0,1,14.94,40.71Z"/><path class="cls-2" d="M42.14,34.52a1.47,1.47,0,0,1,2.23.75,1.43,1.43,0,0,1-2,1.61A1.37,1.37,0,0,1,42.14,34.52Z"/><path class="cls-12" d="M42.57,35.09a.73.73,0,0,1,1.11.38.71.71,0,0,1-1,.8A.68.68,0,0,1,42.57,35.09Z"/><path class="cls-2" d="M45.89,35.27a1.47,1.47,0,0,1,2.23.75,1.43,1.43,0,0,1-2,1.61A1.37,1.37,0,0,1,45.89,35.27Z"/><path class="cls-4" d="M46.32,35.84a.73.73,0,0,1,1.11.38.71.71,0,0,1-1,.8A.68.68,0,0,1,46.32,35.84Z"/><path class="cls-2" d="M49.77,36.34a.73.73,0,0,1,1.11.38.71.71,0,0,1-1,.8A.68.68,0,0,1,49.77,36.34Z"/><path class="cls-2" d="M52.69,37a.73.73,0,0,1,1.11.38.71.71,0,0,1-1,.8A.68.68,0,0,1,52.69,37Z"/><path class="cls-4" d="M48.88,39.95a33.34,33.34,0,0,1,4.46,1c0,.13-.12.92-.25.88s-1.79-.5-1.87-.33-.42,2.54-.54,2.54a1.69,1.69,0,0,1-.42-.12l.25-2.62a10.82,10.82,0,0,1-2-.37A9.31,9.31,0,0,1,48.88,39.95Z"/><path class="cls-2" d="M29,32.57c.12-.12.92-.12.92.13a15.07,15.07,0,0,1-.71,3.21c-.21.08-.75.08-.79-.21A17.35,17.35,0,0,1,29,32.57Z"/><path class="cls-2" d="M40.71,42.86c.14-.06.58.58.46.88a.89.89,0,0,1-.37.42l-.71-.71A2.91,2.91,0,0,1,40.71,42.86Z"/></g></svg>