<svg id="Layer_1" data-name="Layer 1" xmlns="http://www.w3.org/2000/svg" width="64" height="64" viewBox="0 0 64 64"><defs><style>.cls-1{fill:#fff;}.cls-2{fill:#1d1d1b;}.cls-3{fill:#8ec480;}.cls-4{fill:#e6e4da;}.cls-5{fill:#c8db89;}.cls-6{fill:#fab900;}</style></defs><title>alien-ship-2</title><g id="alien-ship-2"><path class="cls-1" d="M11.86,58.28a5.62,5.62,0,0,1-3.55-1.23,3.75,3.75,0,0,1-1.4-2.93A5.42,5.42,0,0,1,8.63,50.3a4.94,4.94,0,0,1,1.32-.8L13,42.68a28.19,28.19,0,0,1-7-6c-4.25-5.08-5.22-11-5-12.91.3-2.67,4.62-6.53,8.28-8.19a42.86,42.86,0,0,1,7.52-2.45,15.77,15.77,0,0,1,8.75-6.54,21.81,21.81,0,0,1,5.88-.84,17.68,17.68,0,0,1,8.27,2,19.66,19.66,0,0,1,5.47,4.9,27.51,27.51,0,0,1,10.71,4.93c4.78,3.91,7.23,8.13,7.09,12.21-.15,4.33-4.62,9-6.33,10.47a31.64,31.64,0,0,1-3.38,2.41l2,5.86a5.51,5.51,0,0,1,3.31,4,4,4,0,0,1-.81,3.35,4.76,4.76,0,0,1-3.67,1.67,4.4,4.4,0,0,1-2.34-.65c-1.95-1.22-2.7-2.79-2.3-4.8a7.9,7.9,0,0,1,.41-1.34c-1.38-1.61-3-3.48-3.93-4.54a20.8,20.8,0,0,1-4.47,1.21c-2.24.39-3.93.61-5,.72l-.08,1a4.34,4.34,0,0,1,1.09,3.64C37.22,54.66,35.41,56,33,56a5.16,5.16,0,0,1-3.1-.94A4.34,4.34,0,0,1,29,49.29a3.61,3.61,0,0,1,.8-.93l-.06-.23A39.6,39.6,0,0,1,25,47.32c-2-.46-3.41-.81-4.29-1L15.9,52a4.73,4.73,0,0,1,.37,3C15.92,57,14.15,58.28,11.86,58.28Z"/><path class="cls-2" d="M17.89,14.58A14.13,14.13,0,0,1,26,8.17a17.43,17.43,0,0,1,12.91,1,19.19,19.19,0,0,1,5.3,4.93s6.2,1.11,10.6,4.72,6.6,7.37,6.47,10.85-3.95,7.74-5.73,9.25a34.62,34.62,0,0,1-4.32,3L54,49.78a4,4,0,0,1,3,3c.49,2.47-2.56,3.7-4.28,2.62s-1.73-2.13-1.54-3.05a8.2,8.2,0,0,1,.74-1.94S46.4,44,46.31,44s-1,.92-5.12,1.63a60.52,60.52,0,0,1-6.29.83l-.28,3.27a2.47,2.47,0,0,1,1.17,2.68c-.25,2-3.54,2.31-4.93,1.26s-.86-2.8-.4-3.58a2.24,2.24,0,0,1,1.33-1l-.71-2.65a32.09,32.09,0,0,1-5.67-.86c-3.48-.8-5.27-1.29-5.27-1.29L13.73,52a2.54,2.54,0,0,1,.89,2.77c-.37,2-3.58,2.37-5.24,1s-.31-3.64.34-4.19a3.51,3.51,0,0,1,1.45-.71l4-8.91a24.9,24.9,0,0,1-7.89-6.38C3.53,31,2.51,25.59,2.69,23.92s3.7-5.21,7.3-6.84A42.56,42.56,0,0,1,17.89,14.58Z"/><path class="cls-3" d="M16.47,16.28c.12.06.18.31.18.31a27.68,27.68,0,0,0-1.54,5.7,14.75,14.75,0,0,0,.22,4.65c.12.15,3,4.22,10.76,5.42A33.83,33.83,0,0,0,42.67,30.7,10.19,10.19,0,0,0,46.34,28,4.43,4.43,0,0,0,47,25.62a19,19,0,0,0-.31-4.75,41.41,41.41,0,0,0-1-4.16,18.81,18.81,0,0,1,6.16,2.43c2.28,1.66,6.56,4.84,6.38,9.12s-5.39,7.12-7.83,8.14S39.71,41,30.25,40.2s-13.44-2.13-18.8-5.86-6.16-6.21-6.6-8.14C4.08,22.78,7.5,20.13,9.57,19A56.58,56.58,0,0,1,16.47,16.28Z"/><path class="cls-4" d="M17.12,26.23a15.63,15.63,0,0,1,1.2-8.35q2.82-5.87,8-7.77a14.54,14.54,0,0,1,11,.25,12.07,12.07,0,0,1,6.66,7.4,39.12,39.12,0,0,1,1,8.81,2.07,2.07,0,0,1-.22.89s-5.12-4.56-5.33-4.56-.83.49-.65.71S44,27.68,43.87,27.9a6,6,0,0,1-1.42.71s-3.85-3.42-4.13-3.42-.74.49-.62.59,4.07,3.14,3.91,3.3a4.67,4.67,0,0,1-1.57.59c-.15-.06-2.74-2.71-3-2.68s-.65.31-.52.49S39.28,29.9,39.09,30s-1.76.46-1.76.46-1.94-1.79-2.07-1.79-.71.18-.65.4,1.63,1.66,1.51,1.73a22.2,22.2,0,0,1-11.8-.46C17.86,28.36,17.12,26.23,17.12,26.23Z"/><path class="cls-2" d="M39.62,20A43.36,43.36,0,0,1,44,23.58a1.41,1.41,0,0,1-.15.62S39.43,21,39.4,20.84A1.69,1.69,0,0,1,39.62,20Z"/><path class="cls-2" d="M40.14,18.59s.37-.62.52-.65a19,19,0,0,1,3.11,2.62c0,.25.06.71,0,.65S40.17,18.59,40.14,18.59Z"/><path class="cls-2" d="M40.88,15.54a7.65,7.65,0,0,1,1.91,1.14c.09.25.18.59.06.62a9.78,9.78,0,0,1-2.1-1.11C40.7,16,40.88,15.54,40.88,15.54Z"/><path class="cls-2" d="M20.85,17a8.8,8.8,0,0,1,2-3.3c1.48-1.51,2.87-2.19,3.11-2.07s.37.49.22.55a8.5,8.5,0,0,0-2.84,2.56c-1,1.54-1.14,2.77-1.36,2.8A3.58,3.58,0,0,1,20.85,17Z"/><path class="cls-2" d="M26.33,16.25c.3-.08.62.34.55.89a14.08,14.08,0,0,0,.31,5.7c.77,2.87.74,4.78.4,5a10.73,10.73,0,0,1-4.28-.4c-1.76-.49-2.31-1-2.25-2.16a13.86,13.86,0,0,1,2.07-5.52A12.38,12.38,0,0,1,26.33,16.25Z"/><path class="cls-1" d="M25.38,18.87c.15,0,.09,2.34.55,4.28s.71,3.27.43,3.45a12.27,12.27,0,0,1-3.21-.43c-.68-.15-1-.31-1-.77a16.94,16.94,0,0,1,1.08-3.82C23.84,20.38,25,18.9,25.38,18.87Z"/><path class="cls-2" d="M7.23,26.54a5.62,5.62,0,0,1,.09-3.48,5.87,5.87,0,0,1,3.51-3c.34,0,.55.46.43.55s-2.5,1-2.8,2.53.52,3.45.4,3.67S7.38,26.7,7.23,26.54Z"/><path class="cls-2" d="M52.44,21.73a32.59,32.59,0,0,1,3.64,2.47.4.4,0,0,1-.25.43,21.43,21.43,0,0,1-3.58-2A2.78,2.78,0,0,1,52.44,21.73Z"/><path class="cls-2" d="M51.61,24.51a36.34,36.34,0,0,1,4.53,3.61c0,.25-.09.46-.25.46s-4.47-2.93-4.56-3.08A1.87,1.87,0,0,1,51.61,24.51Z"/><path class="cls-2" d="M50.62,27.1a36.41,36.41,0,0,1,5.12,3.33c0,.18-.25.62-.34.55S49.91,28.24,50,28.05A4.69,4.69,0,0,1,50.62,27.1Z"/><path class="cls-2" d="M48.65,29.29c.18,0,5.05,2.53,5,2.74s-.18.49-.37.43S48,30.12,48.13,30,48.5,29.32,48.65,29.29Z"/><path class="cls-2" d="M47.08,31.66A37.43,37.43,0,0,1,51,34.06c-.15.12-.22.22-.4.25a29.75,29.75,0,0,1-4-1.94A1.75,1.75,0,0,1,47.08,31.66Z"/><path class="cls-2" d="M45.29,33.82a19.15,19.15,0,0,1,3.42,2.07c-.15.09-.37.28-.52.28a26.43,26.43,0,0,1-3.48-1.82A1.89,1.89,0,0,1,45.29,33.82Z"/><path class="cls-2" d="M42.73,35.45a19.5,19.5,0,0,1,2.5,1.6s-.37.28-.49.25a23,23,0,0,1-2.43-1.42C42.3,35.79,42.58,35.51,42.73,35.45Z"/><path class="cls-5" d="M8.67,34.4c.14-.14,4.81,3.48,9.62,5.27S26.43,41.74,33,42a37,37,0,0,0,16.4-3.21c4-1.79,6.29-3.42,6.47-3.21s-2.28,3.11-6,4.84-8.38,4.19-16.18,4.22S20.36,43.49,16,40.94,8.4,34.68,8.67,34.4Z"/><path class="cls-6" d="M16.19,42.57A9.85,9.85,0,0,1,19,44.2c-.09.09-5.76,7.09-5.95,7.12s-.65,0-.65-.12S16,42.72,16.19,42.57Z"/><path class="cls-6" d="M11,52.16c.83-.08,2.65.68,2.59,2s-2.16,1.51-3.11,1.08S9.38,52.31,11,52.16Z"/><path class="cls-6" d="M32.16,46.64a15.87,15.87,0,0,1,1.76.06,21.45,21.45,0,0,1-.37,2.62c-.09,0-.77,0-.8-.06S32.16,46.64,32.16,46.64Z"/><path class="cls-6" d="M31.91,50.43a1.9,1.9,0,0,1,2.62,1.11c.55,1.48-1.76,2-2.59,1.42S30.93,50.77,31.91,50.43Z"/><path class="cls-6" d="M47.57,43.77a13.66,13.66,0,0,1,2.74-1.14c0,.09,2.31,6.66,2.13,6.72s-.12.34-.34,0S47.54,43.86,47.57,43.77Z"/><path class="cls-6" d="M53,51.23a2.81,2.81,0,0,1,2.77,1.42,1.55,1.55,0,0,1-2.31,1.88C51.92,53.67,52.19,51.45,53,51.23Z"/></g></svg>