<svg id="Layer_1" data-name="Layer 1" xmlns="http://www.w3.org/2000/svg" width="64" height="64" viewBox="0 0 64 64"><defs><style>.cls-1{fill:#fff;}.cls-2{fill:#1d1d1b;}.cls-3{fill:#cbe7f5;}.cls-4{fill:#fab900;}.cls-5{fill:#e7413e;}.cls-6{fill:#e6e4da;}.cls-7{fill:#92a0d1;}</style></defs><title>satellite</title><g id="satellite"><path class="cls-1" d="M46,61.54a5.87,5.87,0,0,1-2.91-.83,70.29,70.29,0,0,1-8-6.51L35,54.15c-1.29-1.14-1.4-2.55-.35-4.2.57-.89,2-2.76,3.34-4.41l1.12-1.43-.46-.48a43.45,43.45,0,0,1-4.52,4.91c-1.94,1.64-3,2.54-4.71,2.54a5,5,0,0,1-.89-.08,6.89,6.89,0,0,1-2.25-1.11A9.9,9.9,0,0,1,26.69,52c.26,3.7-.88,6.4-1.66,7.23a1.84,1.84,0,0,1-1.37.63c-.7,0-.88,0-7.8-5.62-.73.72-1.61,1.59-2.07,2a4.06,4.06,0,0,1-.19,2.35A3.87,3.87,0,0,1,11,60.74,5.9,5.9,0,0,1,9.28,61a3.87,3.87,0,0,1-2.93-1.24,4.45,4.45,0,0,1-1.08-3.35c.22-2.52,3-3.64,3.74-3.81l.37-.06L11,49.39c-5.29-4.7-5.37-5.28-5.45-5.89a2.47,2.47,0,0,1,.61-1.93A5.66,5.66,0,0,1,10.31,40h.22a27.11,27.11,0,0,1,5.88,1.09c-.78-.71-1.55-1.41-1.82-1.68a3.93,3.93,0,0,1-.75-4.5c.45-1.12,3.61-5.49,5.67-8.29l-.25-.2a44.8,44.8,0,0,1-4.1,4.09,4.05,4.05,0,0,1-2.39.83,5.74,5.74,0,0,1-3.41-1.4C8.07,29,.84,21.45.84,18.9c0-1.15.66-2.66,9.19-11.76l.6-.64c.27-.29.53-.6.79-.9,1.25-1.47,2.67-3.13,4.94-3.13a4.68,4.68,0,0,1,1.28.18c2.52.72,11.19,7.21,11.89,8.9.44,1.06.55,2.77-1.09,5.13l.35-.41a6.61,6.61,0,0,1,4.68-2.18,4.77,4.77,0,0,1,2.87.94c1.59,1.16,6.59,5.36,9.57,7.87L48,24.68c2.49,1.92,2.92,4.55,1.14,7-.17.24-.37.5-.59.78a5.29,5.29,0,0,1,3.2-1.13,5.83,5.83,0,0,1,3.41,1.19c2.36,1.68,6.7,5.56,7.33,6.67.72,1.27,1.26,3.06-.84,5.82-1.53,2-11.93,14.63-12.74,15.38A4.37,4.37,0,0,1,46,61.54Zm-3-22.4,1.62-2L42.82,39ZM24.25,21.38l1-1.08-1,1Z"/><path class="cls-2" d="M21.83,26.32l-2.75-2.25s-3.92,4.33-4.92,5-2,.83-3.79-.54S2.54,20.32,2.54,18.9s7.71-9.5,9.33-11.25,3-4,5.29-3.37S27.54,11.19,28,12.19s0,2.58-1.79,4.63-4.54,4.58-4.54,4.58l2.79,2.33s5.25-5.83,5.71-6.42,3-2.5,5.21-.92S46.46,25.61,47,26a3.14,3.14,0,0,1,.79,4.71c-1.87,2.63-7.46,8.33-7.33,8.42s2.67,2.5,2.67,2.5,5.38-6.79,6-7.37a3.65,3.65,0,0,1,5.08-.33A44.83,44.83,0,0,1,61,40.07c.38.67,1,1.71-.71,4S48.42,58.61,47.79,59.19s-2,1.08-3.87,0a71.11,71.11,0,0,1-7.54-6.17c-.37-.42-1.21-.71-.25-2.21s5.13-6.54,5.17-6.79a16.09,16.09,0,0,0-2.83-3,42.35,42.35,0,0,1-5.37,6.13C31,49,30.29,49.57,28.87,49.32s-6.08-4.46-6.08-4.46l-.83.88a11,11,0,0,1,3,6.33c.25,3.63-1,6-1.33,6s-7.92-6.21-7.92-6.21S13,54.61,12.5,55.07s-.67.58-.67.58,1.38,2.63-1.33,3.46S6.83,58,7,56.57s2-2.21,2.42-2.29a4,4,0,0,1,1,0L13.08,49S7.29,43.9,7.21,43.28s.88-1.5,3.17-1.58,8,1.75,8,1.75l1.17-1.79s-3.21-2.87-3.79-3.46a2.26,2.26,0,0,1-.37-2.67C15.92,34.28,21.83,26.32,21.83,26.32Z"/><path class="cls-3" d="M4.54,18.82c-.08-.38,1.79-2.42,2-2.29s1.83,1.38,1.67,1.58S6.17,20.82,6,20.69A10.08,10.08,0,0,1,4.54,18.82Z"/><path class="cls-3" d="M6.58,21.36a12.81,12.81,0,0,1,2.63-2.58c.17.13,2.67,2.42,2.58,2.71a18.24,18.24,0,0,1-2.5,3.17C9.12,24.57,6.58,21.4,6.58,21.36Z"/><path class="cls-3" d="M9.92,25.19a25,25,0,0,1,2.92-3c.21.08,3,2.71,2.88,3s-2,3.08-3.17,2.58A8.75,8.75,0,0,1,9.92,25.19Z"/><path class="cls-3" d="M7.29,15.36c-.07-.2,2.08-2.54,2.38-2.46s1.87,1.25,1.71,1.54S9.29,17.32,9,17.19A14.21,14.21,0,0,1,7.29,15.36Z"/><path class="cls-3" d="M10.58,11.82A22.05,22.05,0,0,1,13,9.4c.17.08,1.79,1.46,1.63,1.62s-2.17,2.71-2.33,2.58A22.21,22.21,0,0,1,10.58,11.82Z"/><path class="cls-3" d="M13.62,8.44S15.5,5.94,16.21,6s2.33.88,2.17,1.08a41.84,41.84,0,0,1-3,3A22,22,0,0,1,13.62,8.44Z"/><path class="cls-3" d="M9.92,18.11c0,.27,2.17-3,2.37-2.88s3.17,2.13,3,2.42a20.21,20.21,0,0,1-2.87,3.21C12.33,20.69,9.92,18.07,9.92,18.11Z"/><path class="cls-3" d="M13.25,21.28c.17-.17,3-2.79,3-2.79s3.08,2.42,3,2.75a19.78,19.78,0,0,1-2.79,3.21C16.29,24.36,13.25,21.28,13.25,21.28Z"/><path class="cls-3" d="M13,14.4a15.55,15.55,0,0,1,2.46-2.54,19.34,19.34,0,0,1,2.92,2.54,21.94,21.94,0,0,1-2.21,2.5A30.94,30.94,0,0,1,13,14.4Z"/><path class="cls-3" d="M16.25,10.78c0-.14,3.21-3.25,3.21-3.25a30.22,30.22,0,0,1,3.17,2.42c-.12.13-3.25,3.71-3.5,3.54S16.29,10.9,16.25,10.78Z"/><path class="cls-3" d="M16.71,17.78s2.38-2.75,2.5-2.71,3.25,2.63,3.13,2.83A28.75,28.75,0,0,1,20,20.49,29.58,29.58,0,0,1,16.71,17.78Z"/><path class="cls-3" d="M20,14.19c.08-.12,3.46-3.79,3.58-3.79S26.37,12,26,13.24A13,13,0,0,1,23.21,17C23.08,16.94,20,14.19,20,14.19Z"/><path class="cls-4" d="M19.71,23c-.25-.1.92-1.17,1.13-1.08a16,16,0,0,1,2.71,2.58,9,9,0,0,1-1,1.08S19.92,23.11,19.71,23Z"/><path class="cls-5" d="M18.46,34.11c1.28-1.7,8-9.92,10.5-12.75s4.21-4.12,5.58-3.58S44.46,26,45.29,26.61s2,1.71,1.21,3.25S39,38.11,39,38.11a9.24,9.24,0,0,0-.83-1.87c-.17,0-.54.46-.54.46a12.63,12.63,0,0,1,.75,2.13c-.08.17-1,1.17-1,1.17a17.37,17.37,0,0,0-.75-2.37c-.12,0-.46.46-.46.46s.79,2.42.58,2.63-1.08,1.21-1.08,1.21l-.75-2.21s-.75.25-.62.46A14.43,14.43,0,0,1,35,42.53a2,2,0,0,1-.33.5l-1-2.46-.54.58a17.43,17.43,0,0,1,.92,2.5c-.08.17-.75,1-.75,1l-.87-2.37s-.54.17-.5.42.83,2.29.67,2.54-.54.88-.54.88a12.46,12.46,0,0,0-1.12-2.54c-.21,0-.58.33-.54.46s1.13,2.5.92,2.71a5.37,5.37,0,0,1-.79.54,14.43,14.43,0,0,0-.79-2.37c-.17,0-.75,0-.67.17a10.73,10.73,0,0,1,.54,2.54c-.17,0-1-.33-4.17-2.83s-8.29-7.33-8.37-8S18.08,34.61,18.46,34.11Z"/><path class="cls-6" d="M9.92,43.36a19.36,19.36,0,0,1,6.12.92c2.75.83,3.71,1.42,5,3.25a16.64,16.64,0,0,1,2,6.13c0,.63,0,1.38-.25,1.29s-1.17-.62-1.12-.75.25-3.12,0-3.42a3.51,3.51,0,0,0-.83-.54,23.92,23.92,0,0,1-.21,3.08l-.62-.62a12.62,12.62,0,0,0-.12-2.46c-.17-.12-.58-.42-.71-.37s0,2.21-.21,2.13S15,48.36,13.25,46.69,9.71,43.53,9.92,43.36Z"/><path class="cls-7" d="M13.83,49.86c.19-.11,1.58,1.17,1.25,1.54a40.4,40.4,0,0,1-3.46,3.54c-.21,0-.58,0-.42-.25S13.54,50,13.83,49.86Z"/><path class="cls-6" d="M9.21,55.61a1.62,1.62,0,0,1,1.92,1.71c-.21.88-2.21,1.63-2.92.54S8.58,55.82,9.21,55.61Z"/><path class="cls-7" d="M20.5,42.61c.15-.15,1.88,1.29,1.63,1.54s-.58.63-.75.58-.92-.67-1.25-.79S20.29,42.82,20.5,42.61Z"/><path class="cls-2" d="M29.62,23.24c-.21-.42,2.67-3.17,3-3s.79.08.58.46a20.85,20.85,0,0,1-2.79,3.13C30.12,23.82,29.67,23.32,29.62,23.24Z"/><path class="cls-2" d="M33.83,29.11c-.17-.51,4-4.83,4.25-4.83s2.5,1.67,2.29,2.17-4.17,4.88-4.46,4.79A9.19,9.19,0,0,1,33.83,29.11Z"/><path class="cls-2" d="M37.58,32.24c0-.18,4.21-5.12,4.54-5s2.25,1.54,2.08,1.88-4,5.25-4.29,5.17A10.29,10.29,0,0,1,37.58,32.24Z"/><path class="cls-7" d="M38,25.65c.23-.08,1.17.88,1,1S36.25,30,36,29.9,34.87,29.11,35,29A32.1,32.1,0,0,1,38,25.65Z"/><path class="cls-7" d="M39,32c-.26-.06,3.13-3.54,3.33-3.5s.92.5.79.67A42.55,42.55,0,0,1,39.87,33C39.71,32.9,39.12,32.07,39,32Z"/><path class="cls-2" d="M32,31.15c.55-.21,4.38,3.17,4.33,3.58s-6.5,8.5-7.12,9.08-1.46.88-1.79.63S23,40.82,23.29,40,31.37,31.4,32,31.15Z"/><path class="cls-7" d="M32.21,32.07c.18-.18,3,2.63,3,2.79s-6.79,8.54-7.08,8.58-3.79-3.12-3.67-3.5S31.79,32.49,32.21,32.07Z"/><path class="cls-2" d="M25.87,39.82c.17-.08,3.38-4.17,3.54-4.12s.46.21.29.38-3.42,4.54-3.58,4.46S25.87,39.82,25.87,39.82Z"/><path class="cls-2" d="M26.79,41s2.83-3.17,3-3.17.46.38.33.54-2.67,3.38-2.79,3.33S27,41.15,26.79,41Z"/><path class="cls-4" d="M40,39.86c.2-.1,2.71,2.25,2.58,2.5s-.5.92-.62.83a22.2,22.2,0,0,1-2.67-2.54A4.51,4.51,0,0,1,40,39.86Z"/><path class="cls-3" d="M47.87,38.78c-.1-.16,2.92-4,3.79-4s2.46,1.42,2.46,1.42-3.46,5-3.67,4.92A27.38,27.38,0,0,1,47.87,38.78Z"/><path class="cls-3" d="M51.42,41.61A45.73,45.73,0,0,1,55.21,37c.21,0,1.79,1.42,1.71,1.63a45.69,45.69,0,0,1-3.58,4.75A13.31,13.31,0,0,1,51.42,41.61Z"/><path class="cls-3" d="M54.17,43.94c.21-.29,3.58-4.62,3.58-4.62s2.29,1.42,2,2.21a24.11,24.11,0,0,1-3.5,4.33C56.17,45.82,54.17,43.94,54.17,43.94Z"/><path class="cls-3" d="M47,39.94a9.75,9.75,0,0,1,2.75,2.42,27.25,27.25,0,0,1-2.54,3,23.43,23.43,0,0,1-2.92-2.25A29.21,29.21,0,0,1,47,39.94Z"/><path class="cls-3" d="M48,46a31.75,31.75,0,0,1,2.79-3c.17.08,1.79,1.33,1.67,1.54s-2.58,3.38-2.75,3.21Z"/><path class="cls-3" d="M50.5,48.24s2.75-3.37,2.88-3.33a12.33,12.33,0,0,1,2,2.13,25.56,25.56,0,0,1-2.67,3.42C52.62,50.36,50.67,48.36,50.5,48.24Z"/><path class="cls-3" d="M49.67,49.49a17.18,17.18,0,0,1,2.25,2c-.08.17-1.54,2.46-1.87,2.29s-2.67-1.87-2.54-2A27.77,27.77,0,0,1,49.67,49.49Z"/><path class="cls-3" d="M46.62,52.82a20.56,20.56,0,0,1,2.58,2.13c-.08.17-1.33,1.75-2,2.5s-1.25,1-2.12.54-1.83-1.21-1.71-1.5S46.62,52.82,46.62,52.82Z"/><path class="cls-3" d="M41.67,46.86c0-.21,2-2.71,2.29-2.62s2.54,1.88,2.38,2.08-2,2.5-2.29,2.5A11.45,11.45,0,0,1,41.67,46.86Z"/><path class="cls-3" d="M44.87,49.32a21.32,21.32,0,0,1,2.29-2.42c.17.08,1.75,1.5,1.67,1.71S47,51,46.75,50.9A20.47,20.47,0,0,1,44.87,49.32Z"/><path class="cls-3" d="M44,50.65c.33.08,1.92,1.29,1.75,1.5s-2.83,3.63-3.17,3.54-1.54-.87-1.46-1.12S44,50.65,44,50.65Z"/><path class="cls-3" d="M40.67,47.94c.17.08,2.75,2,2.54,2.25s-2.75,3.75-3.08,3.67-2.5-1.5-2.21-2.25A31.84,31.84,0,0,1,40.67,47.94Z"/></g></svg>