<svg id="Layer_1" data-name="Layer 1" xmlns="http://www.w3.org/2000/svg" width="64" height="64" viewBox="0 0 64 64"><defs><style>.cls-1{fill:#fff;}.cls-2{fill:#1d1d1b;}.cls-3{fill:#ddc07c;}.cls-4{fill:#ffe19b;}.cls-5{fill:#e6e4da;}</style></defs><title>saturn</title><g id="saturn"><path class="cls-1" d="M32,51.36a17.86,17.86,0,0,1-7.38-1.62,19.07,19.07,0,0,1-8.89-9.05A21.31,21.31,0,0,1,7.07,37C3.77,34.49.39,31,3.52,26.14c1.79-2.77,6.23-4.43,13.2-4.93a16.56,16.56,0,0,1,6.47-6,21.52,21.52,0,0,1,10.57-2.59,33.76,33.76,0,0,1,3.88.24c4.08.46,7,2.47,9.36,6.51a18.73,18.73,0,0,1,2.07,4.71c2.13.36,6.53,1.25,9.42,2.94,5,2.9,2.9,7,2.22,8.3-1.4,2.75-4,4.62-7.82,5.57L48,42.13a14.24,14.24,0,0,1-6.19,6.64A21.38,21.38,0,0,1,32,51.36Z"/><path class="cls-2" d="M17.79,22.85s1.34-3.47,6.22-6.12,9.59-2.59,13.44-2.16,6.13,2.38,8.09,5.69a13.43,13.43,0,0,1,2.09,5.34s6.41.81,10,2.91,2.28,4.66,1.56,6.06-2.34,3.59-6.72,4.69l-5.72,1.44A12.7,12.7,0,0,1,41,47.26c-4.22,2.16-9.72,3.66-15.75.94s-8.41-9-8.41-9a20,20,0,0,1-8.78-3.5c-3.84-2.94-5.22-5.41-3.16-8.59S13.85,23.07,17.79,22.85Z"/><path class="cls-3" d="M21.6,21.6c-.25,0-.66-.31-.59-.5S25.6,16.63,30.57,16s6.88,1.53,8.53,2.41,3.5,1.25,3.53,1.53,0,.41-.41.53-4.06-.56-6.34-.47-3.28,1.13-4.72,1.56a15.5,15.5,0,0,1-5.25.19C24.35,21.6,21.6,21.6,21.6,21.6Z"/><path class="cls-4" d="M19.51,23.22a7.83,7.83,0,0,1,3.44-.41c2.09.16,4.06.94,6.81.5s4.41-1.87,6.56-1.91,3.38.41,5.09.41,2-.31,2.34-.09a9.75,9.75,0,0,1,1.66,3.19c.47,1.38.47,2.19.31,2.28a2.9,2.9,0,0,1-1.53.22c-.37-.16-.56-1.25-3.84-1a41.19,41.19,0,0,1-4.25.25c-1.19,0-1.56-1.06-5-.62s-3.87,1.34-5.69.66-1.19-2-3.81-1.62-3.16.75-3.41.66S19.26,23.32,19.51,23.22Z"/><path class="cls-5" d="M18.41,27.07c.32-.1,3.16-1,4.19-.44s2.16,2.25,4.37,2.06,3.09-1.56,5.94-1.12,2.91.63,4.19.59,3-.66,4.47,0,1.53.88,2.22.84,1.78-.53,2-.34.72,2.19.5,2.38-.91,1.09-9.12,1.06A96.42,96.42,0,0,1,21.63,31c-2.87-.44-4.25-.72-4.34-1.31S17.6,27.32,18.41,27.07Z"/><path class="cls-4" d="M16.51,24.44c.13,0,0,.5-.09.88s-.56,1.28-.56,1.28-1.84.16-2.37,1.06S13.23,30,16.13,31a46.31,46.31,0,0,0,15.94,2.69c8.28.13,11.38.34,14.59-.84s4.31-2.66,3.91-3.37-1-1-1-1.12.19-.31.69-.34a14.57,14.57,0,0,1,6.44,2.13c2.09,1.56,1.53,3.41.06,4.75S53,38.07,46.35,38.66a158.46,158.46,0,0,1-21.09,0,48.33,48.33,0,0,1-14.62-3.37C7.1,33.94,5.35,31.54,6.1,29.1S11.26,24.51,16.51,24.44Z"/><path class="cls-4" d="M18.91,39.57c0-.25,4.09.81,11.44,1s14.53-.28,14.56-.06a4.8,4.8,0,0,1-1,1.94,18.83,18.83,0,0,1-5.59,1.09c-2.09,0-.94-.91-6-1A42.93,42.93,0,0,1,26,42a4.19,4.19,0,0,0-2.91.56c-.94.5-1.22.81-1.53.69S18.73,40.63,18.91,39.57Z"/><path class="cls-3" d="M23.07,44.44s-.19-.91,1.91-.94,3.59.28,6,.22a8.31,8.31,0,0,1,3.63.41c.63.22.5.78,3.09.75s4.91-.69,4.84-.41a11.71,11.71,0,0,1-3.16,2,5.53,5.53,0,0,1-1.94.47,19.83,19.83,0,0,0-1.81-1.81c-.22-.06-1,.22-.91.34s1.91,1.56,1.69,1.72a2.49,2.49,0,0,1-1.37.22c-.12-.12-2.12-2.56-2.34-2.62S32,44.91,32,45s2.38,2.63,2.25,2.66a7.29,7.29,0,0,1-1.09.19c-.09,0-2.28-2.47-2.37-2.44s-.78.28-.72.44,1.47,1.84,1.28,1.94A13.12,13.12,0,0,1,26,46.41C23.32,45.16,23,44.76,23.07,44.44Z"/><path class="cls-2" d="M28.41,19.19c-.06-.22-.91-.25-1.59-.12a3.73,3.73,0,0,0-1.66.78c-.06.13.38.53.56.56s.28-.12.88-.44,1.56-.16,1.81-.28S28.48,19.41,28.41,19.19Zm4.31-.78a13.71,13.71,0,0,1,1.75.09c.38-.06.22-.19.28-.47s-.16-.28-1.12-.41a3.83,3.83,0,0,0-1.87,0c-.16.13,0,.75.16.84S32.13,18.54,32.73,18.41Zm-.87,6.44a.56.56,0,0,0,.78-.34c.09-.37-.05-.71-.66-.44S31.6,24.72,31.85,24.85Zm2.41-1.16c-.56.16-.62.72-.37.91s.47.19.81-.12A.46.46,0,0,0,34.26,23.69Zm2.54.07a.46.46,0,0,0-.44-.78c-.56.16-.62.72-.37.91S36.46,24.08,36.8,23.77Zm0,1.54c.25.19.47.19.81-.12a.46.46,0,0,0-.44-.78C36.63,24.56,36.57,25.12,36.82,25.31Zm2.46-2.17a.46.46,0,0,0-.44-.78c-.56.16-.62.72-.37.91S38.93,23.45,39.28,23.14Zm1.46,1.46a.46.46,0,0,0-.44-.78c-.56.16-.62.72-.37.91S40.39,24.91,40.74,24.6ZM39,24.86c-.56.16-.62.72-.37.91s.47.19.81-.12A.46.46,0,0,0,39,24.86Zm3.38-1.7a.46.46,0,0,0-.44-.78c-.56.16-.62.72-.37.91S42.08,23.47,42.42,23.16Zm1.33,1.5a.46.46,0,0,0-.44-.78c-.56.16-.62.72-.37.91S43.41,25,43.76,24.66Zm-1.67,1a.46.46,0,0,0-.44-.78c-.56.16-.62.72-.37.91S41.75,26,42.09,25.68Zm2.19-.3c-.56.16-.62.72-.37.91s.47.19.81-.12A.46.46,0,0,0,44.28,25.38ZM20.41,28.16a.72.72,0,0,0-.5.69c.06.19.38.16,1.13.25a33.8,33.8,0,0,0,3.41.34c.34-.06.22-.06.19-.28A19.89,19.89,0,0,0,20.41,28.16Zm7.91,2.5c.25.09.25.13,1.78.22a13.36,13.36,0,0,0,3,0c.22-.09,0-.34-.06-.53s-.53,0-1.53-.06A19.64,19.64,0,0,0,28.45,30C28.29,30.07,28.07,30.57,28.32,30.66ZM41.79,30a18.63,18.63,0,0,1-2,0c-.12,0-.44.66-.31.78a8,8,0,0,0,2.38-.09,21.92,21.92,0,0,0,2.31-.22c.19-.09-.16-.44-.28-.56A8.7,8.7,0,0,0,41.79,30Zm-26.19-1,.25-.91c-.19,0-.91.16-.78.41A1.73,1.73,0,0,0,15.6,28.94Zm-1.66,3.19c.31-.16.16-.19,0-.41s-2-.41-2.72-1.44.69-2.19.78-2.34-.53-.26-.72-.16a2,2,0,0,0-.87,2.88C11.2,32.38,13.63,32.29,13.95,32.13ZM8,30.44c-.09-.81.56-1.41.63-1.62S8.54,28.6,8,28.6a3.18,3.18,0,0,0-.87,2c-.19,1.34,1.28,1.69,1.38,1.75s.5-.12.69-.31-.16-.16-.44-.31A1.43,1.43,0,0,1,8,30.44Zm8.25,4.94a8.36,8.36,0,0,1-3.72-1.66c-.22,0-.69.66-.69.94s.56.5,2.84,1.22A35,35,0,0,0,20,37.1c.31,0,.38-.81.34-.91A36.86,36.86,0,0,0,16.29,35.38Zm19.63,1.09c-4.78-.06-8.47-.8-9-.75-.31,0-.28,1,0,1.06s1.19.28,7.59.59,7.41-.22,7.53-.28.09-.47,0-.69S40.7,36.54,35.91,36.47ZM54.6,31.82c-.31,0-2.34,1.69-4.47,2.56s-4.16.6-4.37.88-.06.81.38.88a18.08,18.08,0,0,0,5.13-1.28,10.82,10.82,0,0,0,3.81-2.53C55.13,32.19,54.91,31.85,54.6,31.82ZM38,45.35a1.67,1.67,0,0,0-.69.13c-.16.13.63.81.63.81a2.43,2.43,0,0,0,1-.28C39.16,45.79,38.26,45.38,38,45.35Z"/></g></svg>